M48
;GenerationSoftware,Autodesk,EAGLE,8.6.1*%
;CreationDate,2018-02-27T16:58:25Z*%
FMAT,2
ICI,OFF
METRIC,TZ,000.000
T9C0.350
T8C0.610
T7C0.800
T6C0.813
T5C0.850
T4C1.016
T3C1.200
T2C3.200
T1C4.000
%
G90
M71
T1
X3000Y51000
X40000Y65000
X5000Y83000
X3000Y5000
X77000Y5000
X77000Y51000
X75000Y83000
T2
X77550Y12550
X2350Y12550
X77560Y43550
X77560Y12550
X2360Y12550
X2360Y43550
X2350Y43550
X77550Y43550
T3
X28330Y6410
X21330Y6410
X66500Y5000
X70000Y5000
X57500Y5000
X61000Y5000
T4
X54180Y43550
X56720Y43550
X59260Y43550
X4660Y98100
X61800Y43550
X64340Y43550
X66880Y43550
X69420Y43550
X71960Y43550
X7200Y98100
X9740Y98100
X7890Y43600
X36400Y43550
X10430Y43600
X12970Y43600
X15510Y43600
X34000Y6740
X34000Y4200
X34000Y1660
X40000Y9310
X40000Y6770
X40000Y4230
X40000Y1690
X38940Y43550
X46000Y6770
X46000Y4230
X46000Y1690
X52000Y9310
X52000Y6770
X52000Y4230
X46000Y9310
X41480Y43550
X44020Y43550
X46560Y43550
X49100Y43550
X33860Y43550
X51640Y43550
X52000Y1690
T5
X14900Y4200
X11100Y4200
T6
X28310Y31440
X30850Y31440
X33390Y31440
X35930Y31440
X38470Y31440
X41010Y31440
X41010Y39060
X38470Y39060
X35930Y39060
X30850Y39060
X28310Y39060
X25770Y39060
X23230Y39060
X20690Y39060
X18150Y39060
X15610Y39060
X13070Y39060
X10530Y39060
X7990Y39060
X56360Y48900
X61440Y48900
X58900Y51440
X46960Y48900
X52040Y48900
X49500Y51440
X71778Y16000
X68222Y16000
X72000Y37778
X72000Y34222
X33390Y39060
X10587Y20000
X15413Y20000
X7990Y31440
X10530Y31440
X13070Y31440
X15610Y31440
X18150Y31440
X20690Y31440
X23230Y31440
X25770Y31440
T7
X22330Y3910
X27330Y3910
T8
X34870Y26970
X29790Y26970
T9
X52000Y23000
X38500Y14500
X44500Y14500
X50500Y14500
X70600Y28700
X63900Y27900
X63900Y26600
X63900Y25400
X63900Y24100
X78000Y17300
X77000Y17300
X79000Y17300
X58900Y22400
X58900Y21400
X56600Y22400
X56600Y21400
X58900Y20400
X56600Y20400
X64800Y36000
X32500Y24200
X7900Y2000
X12800Y13600
X8100Y9000
X11200Y17900
X6200Y16800
X43000Y60000
X44000Y60000
X44000Y56000
X43000Y56000
X42000Y56000
X41000Y56000
X39000Y56000
X38000Y56000
X37000Y56000
X36000Y56000
X47600Y36900
X49300Y35200
X49900Y33100
X59100Y41000
X14200Y7800
X37000Y60000
X38000Y60000
X36000Y60000
X15800Y5600
X13000Y20800
X39000Y60000
X14200Y9100
X6500Y15000
X48100Y34200
X46000Y35000
X41000Y60000
X40000Y23000
X46000Y23000
X37000Y13000
X38800Y25800
X37600Y25800
X50600Y31900
X46000Y38000
X38500Y12200
X43300Y13000
X62000Y46700
X60400Y45100
X55000Y16000
X49000Y16000
X43000Y16000
X71400Y89800
X65000Y78800
X57100Y70900
X46500Y67700
X28500Y67700
X19400Y74300
X11400Y82400
X29700Y41500
X15900Y34200
X7100Y25100
X42000Y60000
M30