 0
SECTION
 2
ENTITIES
  0
POLYLINE
 8
Component#21
 66
     1
70
    8
 10
0.0
 20
 0.0
 30
0.0
  0
VERTEX
  8
MY3DLAYER
10
214.00000000000045
20
192.20000000000363
30
-2.537969834293108e-13
 70
     32
  0
VERTEX
  8
MY3DLAYER
10
115.99999999999997
20
192.20000000000354
30
-2.537969834293108e-13
 70
     32
  0
VERTEX
  8
MY3DLAYER
10
115.99999999999997
20
210.20000000000286
30
-2.537969834293108e-13
 70
     32
  0
VERTEX
  8
MY3DLAYER
10
214.00000000000045
20
210.20000000000294
30
-3.6095570976613087e-13
 70
     32
  0
VERTEX
  8
MY3DLAYER
10
214.00000000000045
20
192.20000000000363
30
-2.537969834293108e-13
 70
     32
  0
SEQEND
  0
POLYLINE
 8
Component#23
 66
     1
70
    8
 10
0.0
 20
 0.0
 30
0.0
  0
VERTEX
  8
MY3DLAYER
10
203.5000000000015
20
206.20000000000306
30
-2.3123725156892757e-13
 70
     32
  0
VERTEX
  8
MY3DLAYER
10
203.50000000000142
20
305.99999999999983
30
-2.3123725156892757e-13
 70
     32
  0
VERTEX
  8
MY3DLAYER
10
210.0000000000009
20
305.99999999999983
30
-2.7635671528969395e-13
 70
     32
  0
VERTEX
  8
MY3DLAYER
10
210.00000000000102
20
206.20000000000306
30
-2.3123725156892757e-13
 70
     32
  0
VERTEX
  8
MY3DLAYER
10
203.5000000000015
20
206.20000000000306
30
-2.3123725156892757e-13
 70
     32
  0
SEQEND
  0
POLYLINE
 8
Component#29
 66
     1
70
    8
 10
0.0
 20
 0.0
 30
0.0
  0
VERTEX
  8
MY3DLAYER
10
229.99999999999997
20
302.0
30
-1.3535839116229907e-13
 70
     32
  0
VERTEX
  8
MY3DLAYER
10
230.00000000000026
20
9.023892744153272e-14
30
0.0
 70
     32
  0
VERTEX
  8
MY3DLAYER
10
120.00000000000018
20
-7.460698725481119e-15
30
0.0
 70
     32
  0
VERTEX
  8
MY3DLAYER
10
119.99999999999991
20
301.9999999999999
30
0.0
 70
     32
  0
VERTEX
  8
MY3DLAYER
10
229.99999999999997
20
302.0
30
-1.3535839116229907e-13
 70
     32
  0
SEQEND
  0
POLYLINE
 8
Component#29
 66
     1
70
    8
 10
0.0
 20
 0.0
 30
0.0
  0
VERTEX
  8
MY3DLAYER
10
185.00000000000006
20
162.20000000000377
30
-7.331912854624534e-14
 70
     32
  0
VERTEX
  8
MY3DLAYER
10
165.0000000000001
20
162.20000000000374
30
-1.127986593019159e-14
 70
     32
  0
VERTEX
  8
MY3DLAYER
10
164.01895306154785
20
162.1678838485829
30
-1.6919798895287383e-14
 70
     32
  0
VERTEX
  8
MY3DLAYER
10
163.04210711669927
20
162.07167292061087
30
-2.255973186038318e-14
 70
     32
  0
VERTEX
  8
MY3DLAYER
10
162.07364516975818
20
161.91177920605224
30
-2.255973186038318e-14
 70
     32
  0
VERTEX
  8
MY3DLAYER
10
161.11771432346228
20
161.68888739433976
30
-2.8199664825478976e-14
 70
     32
  0
VERTEX
  8
MY3DLAYER
10
160.1784080204526
20
161.40395194243038
30
-3.3839597790574766e-14
 70
     32
  0
VERTEX
  8
MY3DLAYER
10
159.25974851452378
20
161.0581929876731
30
-3.947953075567056e-14
 70
     32
  0
VERTEX
  8
MY3DLAYER
10
158.36566964671505
20
160.65309112299406
30
-3.947953075567056e-14
 70
     32
  0
VERTEX
  8
MY3DLAYER
10
157.5
20
160.19038105677046
30
-4.511946372076636e-14
 70
     32
  0
VERTEX
  8
MY3DLAYER
10
156.66644650470596
20
159.672044184542
30
-5.0759396685862156e-14
 70
     32
  0
VERTEX
  8
MY3DLAYER
10
155.8685785648693
20
159.10030010437237
30
-5.0759396685862156e-14
 70
     32
  0
VERTEX
  8
MY3DLAYER
10
155.109812773499
20
158.47759711218845
30
-5.639932965095795e-14
 70
     32
  0
VERTEX
  8
MY3DLAYER
10
154.39339828220182
20
157.80660171780193
30
-5.639932965095795e-14
 70
     32
  0
VERTEX
  8
MY3DLAYER
10
153.72240288781538
20
157.09018722650475
30
-6.203926261605374e-14
 70
     32
  0
VERTEX
  8
MY3DLAYER
10
153.09969989563146
20
156.33142143513453
30
-6.767919558114953e-14
 70
     32
  0
VERTEX
  8
MY3DLAYER
10
152.52795581546184
20
155.53355349529787
30
-6.767919558114953e-14
 70
     32
  0
VERTEX
  8
MY3DLAYER
10
152.00961894323348
20
154.70000000000383
30
-6.767919558114953e-14
 70
     32
  0
VERTEX
  8
MY3DLAYER
10
151.54690887700977
20
153.83433035328878
30
-7.331912854624534e-14
 70
     32
  0
VERTEX
  8
MY3DLAYER
10
151.14180701233073
20
152.94025148548005
30
-7.331912854624534e-14
 70
     32
  0
VERTEX
  8
MY3DLAYER
10
150.79604805757344
20
152.02159197955123
30
-7.331912854624534e-14
 70
     32
  0
VERTEX
  8
MY3DLAYER
10
150.51111260566407
20
151.08228567654155
30
-7.895906151134113e-14
 70
     32
  0
VERTEX
  8
MY3DLAYER
10
150.28822079395158
20
150.12635483024565
30
-7.895906151134113e-14
 70
     32
  0
VERTEX
  8
MY3DLAYER
10
150.12832707939288
20
149.15789288330447
30
-7.895906151134113e-14
 70
     32
  0
VERTEX
  8
MY3DLAYER
10
150.032116151421
20
148.18104693845598
30
-7.895906151134113e-14
 70
     32
  0
VERTEX
  8
MY3DLAYER
10
150.00000000000009
20
147.2000000000037
30
-7.895906151134113e-14
 70
     32
  0
VERTEX
  8
MY3DLAYER
10
150.00000000000017
20
65.00000000000004
30
0.0
 70
     32
  0
VERTEX
  8
MY3DLAYER
10
150.0321161514211
20
64.01895306154788
30
0.0
 70
     32
  0
VERTEX
  8
MY3DLAYER
10
150.12832707939296
20
63.04210711669929
30
0.0
 70
     32
  0
VERTEX
  8
MY3DLAYER
10
150.28822079395167
20
62.0736451697581
30
0.0
 70
     32
  0
VERTEX
  8
MY3DLAYER
10
150.51111260566418
20
61.11771432346221
30
0.0
 70
     32
  0
VERTEX
  8
MY3DLAYER
10
150.79604805757353
20
60.178408020452615
30
0.0
 70
     32
  0
VERTEX
  8
MY3DLAYER
10
151.14180701233082
20
59.25974851452371
30
0.0
 70
     32
  0
VERTEX
  8
MY3DLAYER
10
151.54690887700986
20
58.36566964671499
30
0.0
 70
     32
  0
VERTEX
  8
MY3DLAYER
10
152.00961894323356
20
57.50000000000003
30
0.0
 70
     32
  0
VERTEX
  8
MY3DLAYER
10
152.52795581546192
20
56.66644650470599
30
0.0
 70
     32
  0
VERTEX
  8
MY3DLAYER
10
153.09969989563155
20
55.86857856486923
30
0.0
 70
     32
  0
VERTEX
  8
MY3DLAYER
10
153.72240288781546
20
55.10981277349902
30
0.0
 70
     32
  0
VERTEX
  8
MY3DLAYER
10
154.3933982822019
20
54.393398282201844
30
0.0
 70
     32
  0
VERTEX
  8
MY3DLAYER
10
155.10981277349907
20
53.72240288781539
30
0.0
 70
     32
  0
VERTEX
  8
MY3DLAYER
10
155.86857856486938
20
53.099699895631495
30
0.0
 70
     32
  0
VERTEX
  8
MY3DLAYER
10
156.66644650470604
20
52.527955815461866
30
0.0
 70
     32
  0
VERTEX
  8
MY3DLAYER
10
157.50000000000009
20
52.0096189432334
30
0.0
 70
     32
  0
VERTEX
  8
MY3DLAYER
10
158.36566964671513
20
51.546908877009706
30
0.0
 70
     32
  0
VERTEX
  8
MY3DLAYER
10
159.25974851452386
20
51.141807012330744
30
0.0
 70
     32
  0
VERTEX
  8
MY3DLAYER
10
160.17840802045268
20
50.796048057573465
30
0.0
 70
     32
  0
VERTEX
  8
MY3DLAYER
10
161.11771432346237
20
50.51111260566402
30
0.0
 70
     32
  0
VERTEX
  8
MY3DLAYER
10
162.07364516975827
20
50.2882207939516
30
0.0
 70
     32
  0
VERTEX
  8
MY3DLAYER
10
163.04210711669936
20
50.1283270793929
30
0.0
 70
     32
  0
VERTEX
  8
MY3DLAYER
10
164.01895306154793
20
50.03211615142095
30
0.0
 70
     32
  0
VERTEX
  8
MY3DLAYER
10
165.0000000000002
20
50.000000000000036
30
0.0
 70
     32
  0
VERTEX
  8
MY3DLAYER
10
185.00000000000017
20
50.00000000000005
30
-1.127986593019159e-14
 70
     32
  0
VERTEX
  8
MY3DLAYER
10
185.9810469384524
20
50.032116151420965
30
-1.127986593019159e-14
 70
     32
  0
VERTEX
  8
MY3DLAYER
10
186.95789288330099
20
50.128327079392925
30
-1.127986593019159e-14
 70
     32
  0
VERTEX
  8
MY3DLAYER
10
187.9263548302421
20
50.28822079395162
30
-1.127986593019159e-14
 70
     32
  0
VERTEX
  8
MY3DLAYER
10
188.88228567653798
20
50.511112605664046
30
-1.127986593019159e-14
 70
     32
  0
VERTEX
  8
MY3DLAYER
10
189.82159197954766
20
50.79604805757349
30
-5.639932965095795e-15
 70
     32
  0
VERTEX
  8
MY3DLAYER
10
190.7402514854765
20
51.14180701233078
30
-5.639932965095795e-15
 70
     32
  0
VERTEX
  8
MY3DLAYER
10
191.6343303532852
20
51.54690887700974
30
-5.639932965095795e-15
 70
     32
  0
VERTEX
  8
MY3DLAYER
10
192.50000000000026
20
52.009618943233434
30
-5.639932965095795e-15
 70
     32
  0
VERTEX
  8
MY3DLAYER
10
193.3335534952943
20
52.5279558154619
30
-5.639932965095795e-15
 70
     32
  0
VERTEX
  8
MY3DLAYER
10
194.13142143513096
20
53.09969989563153
30
-5.639932965095795e-15
 70
     32
  0
VERTEX
  8
MY3DLAYER
10
194.89018722650127
20
53.72240288781543
30
-5.639932965095795e-15
 70
     32
  0
VERTEX
  8
MY3DLAYER
10
195.60660171779844
20
54.39339828220188
30
-5.639932965095795e-15
 70
     32
  0
VERTEX
  8
MY3DLAYER
10
196.2775971121849
20
55.10981277349905
30
-5.639932965095795e-15
 70
     32
  0
VERTEX
  8
MY3DLAYER
10
196.9003001043688
20
55.86857856486927
30
-5.639932965095795e-15
 70
     32
  0
VERTEX
  8
MY3DLAYER
10
197.47204418453842
20
56.66644650470602
30
-5.639932965095795e-15
 70
     32
  0
VERTEX
  8
MY3DLAYER
10
197.9903810567668
20
57.500000000000064
30
-5.639932965095795e-15
 70
     32
  0
VERTEX
  8
MY3DLAYER
10
198.4530911229905
20
58.365669646715034
30
-5.639932965095795e-15
 70
     32
  0
VERTEX
  8
MY3DLAYER
10
198.85819298766955
20
59.25974851452375
30
-5.639932965095795e-15
 70
     32
  0
VERTEX
  8
MY3DLAYER
10
199.20395194242684
20
60.17840802045266
30
-5.639932965095795e-15
 70
     32
  0
VERTEX
  8
MY3DLAYER
10
199.4888873943362
20
61.11771432346225
30
-5.639932965095795e-15
 70
     32
  0
VERTEX
  8
MY3DLAYER
10
199.7117792060487
20
62.07364516975815
30
-1.127986593019159e-14
 70
     32
  0
VERTEX
  8
MY3DLAYER
10
199.87167292060738
20
63.042107116699334
30
-1.127986593019159e-14
 70
     32
  0
VERTEX
  8
MY3DLAYER
10
199.96788384857925
20
64.01895306154792
30
-1.127986593019159e-14
 70
     32
  0
VERTEX
  8
MY3DLAYER
10
200.00000000000017
20
65.00000000000009
30
-1.127986593019159e-14
 70
     32
  0
VERTEX
  8
MY3DLAYER
10
200.00000000000009
20
147.20000000000377
30
-1.3535839116229907e-13
 70
     32
  0
VERTEX
  8
MY3DLAYER
10
199.96788384857916
20
148.181046938456
30
-1.3535839116229907e-13
 70
     32
  0
VERTEX
  8
MY3DLAYER
10
199.8716729206073
20
149.15789288330453
30
-1.3535839116229907e-13
 70
     32
  0
VERTEX
  8
MY3DLAYER
10
199.7117792060486
20
150.1263548302457
30
-1.3535839116229907e-13
 70
     32
  0
VERTEX
  8
MY3DLAYER
10
199.4888873943361
20
151.0822856765416
30
-1.3535839116229907e-13
 70
     32
  0
VERTEX
  8
MY3DLAYER
10
199.20395194242673
20
152.0215919795513
30
-1.3535839116229907e-13
 70
     32
  0
VERTEX
  8
MY3DLAYER
10
198.85819298766944
20
152.9402514854801
30
-1.3535839116229907e-13
 70
     32
  0
VERTEX
  8
MY3DLAYER
10
198.4530911229904
20
153.8343303532888
30
-1.3535839116229907e-13
 70
     32
  0
VERTEX
  8
MY3DLAYER
10
197.9903810567667
20
154.70000000000385
30
-1.3535839116229907e-13
 70
     32
  0
VERTEX
  8
MY3DLAYER
10
197.47204418453833
20
155.5335534952979
30
-1.2971845819720328e-13
 70
     32
  0
VERTEX
  8
MY3DLAYER
10
196.9003001043687
20
156.3314214351346
30
-1.2971845819720328e-13
 70
     32
  0
VERTEX
  8
MY3DLAYER
10
196.2775971121848
20
157.09018722650478
30
-1.2407852523210748e-13
 70
     32
  0
VERTEX
  8
MY3DLAYER
10
195.60660171779836
20
157.80660171780195
30
-1.2407852523210748e-13
 70
     32
  0
VERTEX
  8
MY3DLAYER
10
194.89018722650118
20
158.4775971121885
30
-1.184385922670117e-13
 70
     32
  0
VERTEX
  8
MY3DLAYER
10
194.13142143513087
20
159.1003001043724
30
-1.184385922670117e-13
 70
     32
  0
VERTEX
  8
MY3DLAYER
10
193.3335534952942
20
159.67204418454202
30
-1.127986593019159e-13
 70
     32
  0
VERTEX
  8
MY3DLAYER
10
192.50000000000017
20
160.1903810567705
30
-1.127986593019159e-13
 70
     32
  0
VERTEX
  8
MY3DLAYER
10
191.63433035328512
20
160.65309112299408
30
-1.071587263368201e-13
 70
     32
  0
VERTEX
  8
MY3DLAYER
10
190.7402514854764
20
161.05819298767312
30
-1.0151879337172431e-13
 70
     32
  0
VERTEX
  8
MY3DLAYER
10
189.82159197954758
20
161.4039519424304
30
-9.587886040662851e-14
 70
     32
  0
VERTEX
  8
MY3DLAYER
10
188.8822856765379
20
161.68888739433976
30
-9.023892744153272e-14
 70
     32
  0
VERTEX
  8
MY3DLAYER
10
187.926354830242
20
161.91177920605227
30
-9.023892744153272e-14
 70
     32
  0
VERTEX
  8
MY3DLAYER
10
186.9578928833009
20
162.0716729206109
30
-8.459899447643693e-14
 70
     32
  0
VERTEX
  8
MY3DLAYER
10
185.98104693845232
20
162.16788384858293
30
-7.895906151134113e-14
 70
     32
  0
VERTEX
  8
MY3DLAYER
10
185.00000000000006
20
162.20000000000377
30
-7.331912854624534e-14
 70
     32
  0
SEQEND
  0
POLYLINE
 8
Component#38
 66
     1
70
    8
 10
0.0
 20
 0.0
 30
0.0
  0
VERTEX
  8
MY3DLAYER
10
202.47487373415325
20
198.72512626585075
30
-2.4815705046421497e-13
 70
     32
  0
VERTEX
  8
MY3DLAYER
10
203.03108891324584
20
199.45000000000377
30
-2.4815705046421497e-13
 70
     32
  0
VERTEX
  8
MY3DLAYER
10
203.3807403920121
20
200.29413334214496
30
-2.4815705046421497e-13
 70
     32
  0
VERTEX
  8
MY3DLAYER
10
203.5000000000003
20
201.20000000000374
30
-2.4815705046421497e-13
 70
     32
  0
VERTEX
  8
MY3DLAYER
10
203.3807403920121
20
202.10586665786252
30
-2.4815705046421497e-13
 70
     32
  0
VERTEX
  8
MY3DLAYER
10
203.03108891324584
20
202.9500000000037
30
-2.4815705046421497e-13
 70
     32
  0
VERTEX
  8
MY3DLAYER
10
202.47487373415325
20
203.67487373415673
30
-2.4815705046421497e-13
 70
     32
  0
VERTEX
  8
MY3DLAYER
10
201.7500000000003
20
204.23108891324927
30
-2.4815705046421497e-13
 70
     32
  0
VERTEX
  8
MY3DLAYER
10
200.90586665785912
20
204.5807403920155
30
-2.4815705046421497e-13
 70
     32
  0
VERTEX
  8
MY3DLAYER
10
200.0000000000003
20
204.70000000000366
30
-2.4815705046421497e-13
 70
     32
  0
VERTEX
  8
MY3DLAYER
10
199.09413334214148
20
204.5807403920155
30
-2.4815705046421497e-13
 70
     32
  0
VERTEX
  8
MY3DLAYER
10
198.2500000000003
20
204.23108891324927
30
-2.4815705046421497e-13
 70
     32
  0
VERTEX
  8
MY3DLAYER
10
197.52512626584738
20
203.67487373415673
30
-2.4815705046421497e-13
 70
     32
  0
VERTEX
  8
MY3DLAYER
10
196.96891108675476
20
202.9500000000037
30
-2.4815705046421497e-13
 70
     32
  0
VERTEX
  8
MY3DLAYER
10
196.61925960798854
20
202.10586665786252
30
-2.4815705046421497e-13
 70
     32
  0
VERTEX
  8
MY3DLAYER
10
196.50000000000028
20
201.20000000000374
30
-2.4815705046421497e-13
 70
     32
  0
VERTEX
  8
MY3DLAYER
10
196.61925960798854
20
200.29413334214496
30
-2.4815705046421497e-13
 70
     32
  0
VERTEX
  8
MY3DLAYER
10
196.96891108675476
20
199.45000000000377
30
-2.4815705046421497e-13
 70
     32
  0
VERTEX
  8
MY3DLAYER
10
197.52512626584738
20
198.72512626585075
30
-2.4815705046421497e-13
 70
     32
  0
VERTEX
  8
MY3DLAYER
10
198.2500000000003
20
198.1689110867582
30
-2.4815705046421497e-13
 70
     32
  0
VERTEX
  8
MY3DLAYER
10
199.09413334214148
20
197.81925960799197
30
-2.4815705046421497e-13
 70
     32
  0
VERTEX
  8
MY3DLAYER
10
200.0000000000003
20
197.7000000000038
30
-2.4815705046421497e-13
 70
     32
  0
VERTEX
  8
MY3DLAYER
10
200.90586665785912
20
197.81925960799197
30
-2.4815705046421497e-13
 70
     32
  0
VERTEX
  8
MY3DLAYER
10
201.7500000000003
20
198.1689110867582
30
-2.4815705046421497e-13
 70
     32
  0
VERTEX
  8
MY3DLAYER
10
202.47487373415325
20
198.72512626585075
30
-2.4815705046421497e-13
 70
     32
  0
SEQEND
  0
POLYLINE
 8
Component#38
 66
     1
70
    8
 10
0.0
 20
 0.0
 30
0.0
  0
VERTEX
  8
MY3DLAYER
10
146.50000000000026
20
201.20000000000368
30
-2.0867751970854441e-13
 70
     32
  0
VERTEX
  8
MY3DLAYER
10
146.6192596079885
20
200.2941333421449
30
-2.0867751970854441e-13
 70
     32
  0
VERTEX
  8
MY3DLAYER
10
146.96891108675473
20
199.45000000000374
30
-2.0867751970854441e-13
 70
     32
  0
VERTEX
  8
MY3DLAYER
10
147.52512626584732
20
198.7251262658507
30
-2.0867751970854441e-13
 70
     32
  0
VERTEX
  8
MY3DLAYER
10
148.25000000000026
20
198.16891108675816
30
-2.0867751970854441e-13
 70
     32
  0
VERTEX
  8
MY3DLAYER
10
149.09413334214145
20
197.8192596079919
30
-2.143174526736402e-13
 70
     32
  0
VERTEX
  8
MY3DLAYER
10
150.00000000000026
20
197.70000000000377
30
-2.143174526736402e-13
 70
     32
  0
VERTEX
  8
MY3DLAYER
10
150.9058666578591
20
197.8192596079919
30
-2.143174526736402e-13
 70
     32
  0
VERTEX
  8
MY3DLAYER
10
151.75000000000028
20
198.16891108675816
30
-2.143174526736402e-13
 70
     32
  0
VERTEX
  8
MY3DLAYER
10
152.47487373415322
20
198.7251262658507
30
-2.19957385638736e-13
 70
     32
  0
VERTEX
  8
MY3DLAYER
10
153.0310889132458
20
199.45000000000374
30
-2.19957385638736e-13
 70
     32
  0
VERTEX
  8
MY3DLAYER
10
153.38074039201203
20
200.2941333421449
30
-2.19957385638736e-13
 70
     32
  0
VERTEX
  8
MY3DLAYER
10
153.50000000000028
20
201.20000000000368
30
-2.19957385638736e-13
 70
     32
  0
VERTEX
  8
MY3DLAYER
10
153.38074039201203
20
202.10586665786246
30
-2.19957385638736e-13
 70
     32
  0
VERTEX
  8
MY3DLAYER
10
153.0310889132458
20
202.95000000000366
30
-2.19957385638736e-13
 70
     32
  0
VERTEX
  8
MY3DLAYER
10
152.47487373415322
20
203.67487373415668
30
-2.19957385638736e-13
 70
     32
  0
VERTEX
  8
MY3DLAYER
10
151.75000000000028
20
204.23108891324924
30
-2.19957385638736e-13
 70
     32
  0
VERTEX
  8
MY3DLAYER
10
150.9058666578591
20
204.58074039201546
30
-2.143174526736402e-13
 70
     32
  0
VERTEX
  8
MY3DLAYER
10
150.00000000000026
20
204.70000000000363
30
-2.143174526736402e-13
 70
     32
  0
VERTEX
  8
MY3DLAYER
10
149.09413334214145
20
204.58074039201546
30
-2.143174526736402e-13
 70
     32
  0
VERTEX
  8
MY3DLAYER
10
148.25000000000026
20
204.23108891324924
30
-2.143174526736402e-13
 70
     32
  0
VERTEX
  8
MY3DLAYER
10
147.52512626584732
20
203.67487373415668
30
-2.0867751970854441e-13
 70
     32
  0
VERTEX
  8
MY3DLAYER
10
146.96891108675473
20
202.95000000000366
30
-2.0867751970854441e-13
 70
     32
  0
VERTEX
  8
MY3DLAYER
10
146.6192596079885
20
202.10586665786246
30
-2.0867751970854441e-13
 70
     32
  0
VERTEX
  8
MY3DLAYER
10
146.50000000000026
20
201.20000000000368
30
-2.0867751970854441e-13
 70
     32
  0
SEQEND
 0
ENDSEC
 0
EOF
