 0
SECTION
 2
ENTITIES
  0
POLYLINE
 8
GLASS POCKET
 66
     1
70
    8
 10
0.0
 20
 0.0
 30
0.0
  0
VERTEX
  8
MY3DLAYER
10
391.85964605128515
20
164.42240004771722
30
8.815557151619407e-15
 70
     32
  0
VERTEX
  8
MY3DLAYER
10
389.5441558772849
20
166.54415587728468
30
9.469500179173987e-15
 70
     32
  0
VERTEX
  8
MY3DLAYER
10
387.4224000477174
20
168.8596460512849
30
1.0132702941606837e-14
 70
     32
  0
VERTEX
  8
MY3DLAYER
10
385.51052640559686
20
171.35124829136268
30
1.0800118065443111e-14
 70
     32
  0
VERTEX
  8
MY3DLAYER
10
383.82308546376083
20
174.0000000000004
30
1.146666611859411e-14
 70
     32
  0
VERTEX
  8
MY3DLAYER
10
382.37291966668124
20
176.78574257733504
30
1.2127274267902608e-14
 70
     32
  0
VERTEX
  8
MY3DLAYER
10
381.1710656517079
20
179.68727484027633
30
1.277691488646635e-14
 70
     32
  0
VERTEX
  8
MY3DLAYER
10
380.2266702535942
20
182.6825143763096
30
1.341064381691425e-14
 70
     32
  0
VERTEX
  8
MY3DLAYER
10
379.5469208915611
20
185.74866560399082
30
1.4023637999429644e-14
 70
     32
  0
VERTEX
  8
MY3DLAYER
10
379.13699086869775
20
188.86239326108455
30
1.4611232178147568e-14
 70
     32
  0
VERTEX
  8
MY3DLAYER
10
379.0000000000006
20
192.00000000000028
30
1.516895440656894e-14
 70
     32
  0
VERTEX
  8
MY3DLAYER
10
379.13699086869775
20
195.137606738916
30
1.569256008177357e-14
 70
     32
  0
VERTEX
  8
MY3DLAYER
10
379.5469208915611
20
198.25133439600975
30
1.617806424841139e-14
 70
     32
  0
VERTEX
  8
MY3DLAYER
10
380.2266702535942
20
201.31748562369097
30
1.662177192661885e-14
 70
     32
  0
VERTEX
  8
MY3DLAYER
10
381.17106565170786
20
204.31272515972444
30
1.7020306233046824e-14
 70
     32
  0
VERTEX
  8
MY3DLAYER
10
382.3729196666812
20
207.2142574226655
30
1.7370634080981733e-14
 70
     32
  0
VERTEX
  8
MY3DLAYER
10
383.82308546376083
20
210.00000000000034
30
1.767008926396708e-14
 70
     32
  0
VERTEX
  8
MY3DLAYER
10
385.51052640559686
20
212.6487517086379
30
1.7916392747244353e-14
 70
     32
  0
VERTEX
  8
MY3DLAYER
10
387.42240004771736
20
215.14035394871567
30
1.8107670012583733e-14
 70
     32
  0
VERTEX
  8
MY3DLAYER
10
389.5441558772848
20
217.45584412271586
30
1.8242465324499585e-14
 70
     32
  0
VERTEX
  8
MY3DLAYER
10
391.8596460512851
20
219.57759995228335
30
1.8319752809276614e-14
 70
     32
  0
VERTEX
  8
MY3DLAYER
10
394.35124829136294
20
221.48947359440396
30
1.8338944262488223e-14
 70
     32
  0
VERTEX
  8
MY3DLAYER
10
397.0000000000005
20
223.17691453624008
30
1.829989362558732e-14
 70
     32
  0
VERTEX
  8
MY3DLAYER
10
399.7857425773354
20
224.6270803333197
30
1.8202898097500156e-14
 70
     32
  0
VERTEX
  8
MY3DLAYER
10
402.6872748402765
20
225.828934348293
30
1.804869587276297e-14
 70
     32
  0
VERTEX
  8
MY3DLAYER
10
405.68251437630977
20
226.77332974640674
30
1.783846052341586e-14
 70
     32
  0
VERTEX
  8
MY3DLAYER
10
408.74866560399107
20
227.45307910843962
30
1.7573792067410916e-14
 70
     32
  0
VERTEX
  8
MY3DLAYER
10
411.86239326108483
20
227.8630091313031
30
1.7256704791509582e-14
 70
     32
  0
VERTEX
  8
MY3DLAYER
10
415.00000000000057
20
228.00000000000023
30
1.688961192134393e-14
 70
     32
  0
VERTEX
  8
MY3DLAYER
10
418.13760673891625
20
227.8630091313031
30
1.6475307255312698e-14
 70
     32
  0
VERTEX
  8
MY3DLAYER
10
421.25133439601
20
227.45307910843962
30
1.601694390208834e-14
 70
     32
  0
VERTEX
  8
MY3DLAYER
10
424.31748562369125
20
226.77332974640677
30
1.5518010283556322e-14
 70
     32
  0
VERTEX
  8
MY3DLAYER
10
427.3127251597246
20
225.82893434829305
30
1.4982303585817958e-14
 70
     32
  0
VERTEX
  8
MY3DLAYER
10
430.2142574226657
20
224.62708033331975
30
1.441390086031161e-14
 70
     32
  0
VERTEX
  8
MY3DLAYER
10
433.0000000000005
20
223.1769145362401
30
1.3817127994989336e-14
 70
     32
  0
VERTEX
  8
MY3DLAYER
10
435.64875170863814
20
221.48947359440402
30
1.319652679169754e-14
 70
     32
  0
VERTEX
  8
MY3DLAYER
10
438.1403539487159
20
219.57759995228338
30
1.2556820400322509e-14
 70
     32
  0
VERTEX
  8
MY3DLAYER
10
440.45584412271626
20
217.45584412271592
30
1.1902877372767931e-14
 70
     32
  0
VERTEX
  8
MY3DLAYER
10
442.5775999522837
20
215.1403539487157
30
1.123967461033508e-14
 70
     32
  0
VERTEX
  8
MY3DLAYER
10
444.48947359440416
20
212.64875170863792
30
1.0572259486498811e-14
 70
     32
  0
VERTEX
  8
MY3DLAYER
10
446.17691453624025
20
210.00000000000037
30
9.905711433347842e-15
 70
     32
  0
VERTEX
  8
MY3DLAYER
10
447.6270803333199
20
207.21425742266538
30
9.245103284039278e-15
 70
     32
  0
VERTEX
  8
MY3DLAYER
10
448.82893434829316
20
204.3127251597243
30
8.595462665475566e-15
 70
     32
  0
VERTEX
  8
MY3DLAYER
10
449.77332974640694
20
201.317485623691
30
7.96173373502767e-15
 70
     32
  0
VERTEX
  8
MY3DLAYER
10
450.45307910843997
20
198.25133439600978
30
7.348739552512272e-15
 70
     32
  0
VERTEX
  8
MY3DLAYER
10
450.8630091313033
20
195.13760673891605
30
6.761145373794348e-15
 70
     32
  0
VERTEX
  8
MY3DLAYER
10
451.00000000000045
20
192.0000000000003
30
6.203423145372973e-15
 70
     32
  0
VERTEX
  8
MY3DLAYER
10
450.8630091313033
20
188.8623932610846
30
5.679817470168344e-15
 70
     32
  0
VERTEX
  8
MY3DLAYER
10
450.45307910843997
20
185.74866560399084
30
5.19431330353053e-15
 70
     32
  0
VERTEX
  8
MY3DLAYER
10
449.77332974640694
20
182.68251437630965
30
4.750605625323066e-15
 70
     32
  0
VERTEX
  8
MY3DLAYER
10
448.82893434829316
20
179.6872748402762
30
4.352071318895093e-15
 70
     32
  0
VERTEX
  8
MY3DLAYER
10
447.6270803333199
20
176.7857425773351
30
4.001743470960187e-15
 70
     32
  0
VERTEX
  8
MY3DLAYER
10
446.17691453624025
20
174.00000000000026
30
3.702288287974838e-15
 70
     32
  0
VERTEX
  8
MY3DLAYER
10
444.48947359440416
20
171.35124829136274
30
3.4559848046975654e-15
 70
     32
  0
VERTEX
  8
MY3DLAYER
10
442.5775999522837
20
168.85964605128493
30
3.2647075393581814e-15
 70
     32
  0
VERTEX
  8
MY3DLAYER
10
440.45584412271626
20
166.54415587728474
30
3.129912227442331e-15
 70
     32
  0
VERTEX
  8
MY3DLAYER
10
438.1403539487159
20
164.42240004771725
30
3.052624742665303e-15
 70
     32
  0
VERTEX
  8
MY3DLAYER
10
435.64875170863814
20
162.51052640559664
30
3.033433289453694e-15
 70
     32
  0
VERTEX
  8
MY3DLAYER
10
433.0000000000005
20
160.82308546376055
30
3.0724839263545947e-15
 70
     32
  0
VERTEX
  8
MY3DLAYER
10
430.2142574226657
20
159.3729196666809
30
3.1694794544417623e-15
 70
     32
  0
VERTEX
  8
MY3DLAYER
10
427.3127251597246
20
158.17106565170758
30
3.323681679178948e-15
 70
     32
  0
VERTEX
  8
MY3DLAYER
10
424.31748562369125
20
157.22667025359385
30
3.533917028526057e-15
 70
     32
  0
VERTEX
  8
MY3DLAYER
10
421.25133439601
20
156.54692089156094
30
3.7985854845310026e-15
 70
     32
  0
VERTEX
  8
MY3DLAYER
10
418.13760673891625
20
156.1369908686975
30
4.115672760432334e-15
 70
     32
  0
VERTEX
  8
MY3DLAYER
10
415.00000000000057
20
156.00000000000037
30
4.482765630597984e-15
 70
     32
  0
VERTEX
  8
MY3DLAYER
10
411.86239326108483
20
156.1369908686975
30
4.897070296629214e-15
 70
     32
  0
VERTEX
  8
MY3DLAYER
10
408.74866560399107
20
156.54692089156094
30
5.355433649853575e-15
 70
     32
  0
VERTEX
  8
MY3DLAYER
10
405.6825143763098
20
157.22667025359385
30
5.8543672683855956e-15
 70
     32
  0
VERTEX
  8
MY3DLAYER
10
402.6872748402765
20
158.17106565170758
30
6.390073966123957e-15
 70
     32
  0
VERTEX
  8
MY3DLAYER
10
399.78574257733544
20
159.3729196666809
30
6.9584766916303e-15
 70
     32
  0
VERTEX
  8
MY3DLAYER
10
397.00000000000057
20
160.82308546376052
30
7.55524955695258e-15
 70
     32
  0
VERTEX
  8
MY3DLAYER
10
394.35124829136294
20
162.51052640559658
30
8.175850760244377e-15
 70
     32
  0
VERTEX
  8
MY3DLAYER
10
391.85964605128515
20
164.42240004771722
30
8.815557151619407e-15
 70
     32
  0
SEQEND
  0
POLYLINE
 8
Component#33
 66
     1
70
    8
 10
0.0
 20
 0.0
 30
0.0
  0
VERTEX
  8
MY3DLAYER
10
356.00000000000057
20
140.30000000000007
30
6.706929292843432e-14
 70
     32
  0
VERTEX
  8
MY3DLAYER
10
474.00000000000057
20
140.30000000000013
30
5.237578336147422e-14
 70
     32
  0
VERTEX
  8
MY3DLAYER
10
474.00000000000057
20
121.7000000000002
30
4.9170681403031527e-14
 70
     32
  0
VERTEX
  8
MY3DLAYER
10
356.0000000000006
20
121.70000000000014
30
6.386419096999162e-14
 70
     32
  0
VERTEX
  8
MY3DLAYER
10
356.00000000000057
20
140.30000000000007
30
6.706929292843432e-14
 70
     32
  0
SEQEND
  0
POLYLINE
 8
Component#33
 66
     1
70
    8
 10
0.0
 20
 0.0
 30
0.0
  0
VERTEX
  8
MY3DLAYER
10
356.0000000000005
20
242.9999999999996
30
6.220654876332343e-14
 70
     32
  0
VERTEX
  8
MY3DLAYER
10
356.0000000000005
20
261.99999999999994
30
6.54805776456037e-14
 70
     32
  0
VERTEX
  8
MY3DLAYER
10
474.0000000000005
20
262.00000000000006
30
5.0787068078643596e-14
 70
     32
  0
VERTEX
  8
MY3DLAYER
10
474.0000000000005
20
242.9999999999997
30
4.751303919636334e-14
 70
     32
  0
VERTEX
  8
MY3DLAYER
10
356.0000000000005
20
242.9999999999996
30
6.220654876332343e-14
 70
     32
  0
SEQEND
  0
POLYLINE
 8
Component#33
 66
     1
70
    8
 10
0.0
 20
 0.0
 30
0.0
  0
VERTEX
  8
MY3DLAYER
10
356.0000000000006
20
19.000000000000206
30
6.308700217000663e-14
 70
     32
  0
VERTEX
  8
MY3DLAYER
10
474.0000000000007
20
19.00000000000028
30
4.275355963795075e-14
 70
     32
  0
VERTEX
  8
MY3DLAYER
10
474.0000000000007
20
2.7071678232459813e-13
30
4.511946372076636e-14
 70
     32
  0
VERTEX
  8
MY3DLAYER
10
356.0000000000007
20
1.986633080264255e-13
30
5.981297328772645e-14
 70
     32
  0
VERTEX
  8
MY3DLAYER
10
356.0000000000006
20
19.000000000000206
30
6.308700217000663e-14
 70
     32
  0
SEQEND
  0
POLYLINE
 8
Component#31
 66
     1
70
    8
 10
0.0
 20
 0.0
 30
0.0
  0
VERTEX
  8
MY3DLAYER
10
360.0000000000004
20
2.0354828933477616e-13
30
4.753693721740197e-14
 70
     32
  0
VERTEX
  8
MY3DLAYER
10
360.0000000000004
20
21.500000000000185
30
-2.771730213767473e-14
 70
     32
  0
VERTEX
  8
MY3DLAYER
10
363.50000000000045
20
25.000000000000114
30
-2.1910083025309162e-14
 70
     32
  0
VERTEX
  8
MY3DLAYER
10
397.0000000000005
20
25.000000000000135
30
7.758052303459133e-15
 70
     32
  0
VERTEX
  8
MY3DLAYER
10
400.5306593077535
20
25.138719982009377
30
1.2982246950470924e-14
 70
     32
  0
VERTEX
  8
MY3DLAYER
10
404.0395509268109
20
25.554024673218883
30
1.2616879505538349e-14
 70
     32
  0
VERTEX
  8
MY3DLAYER
10
407.50504137351624
20
26.243353582104703
30
1.794406851064805e-14
 70
     32
  0
VERTEX
  8
MY3DLAYER
10
410.9057647468732
20
27.20245676671818
30
1.7685876206119607e-14
 70
     32
  0
VERTEX
  8
MY3DLAYER
10
414.2207544564295
20
28.425421036992226
30
2.312376036355977e-14
 70
     32
  0
VERTEX
  8
MY3DLAYER
10
417.42957248828014
20
29.904706411523602
30
2.861903371595992e-14
 70
     32
  0
VERTEX
  8
MY3DLAYER
10
420.51243541221817
20
31.631192604065948
30
2.853265517284074e-14
 70
     32
  0
VERTEX
  8
MY3DLAYER
10
423.4503363531618
20
33.594235253127565
30
3.414502321683598e-14
 70
     32
  0
VERTEX
  8
MY3DLAYER
10
426.2251621748588
20
35.781731547998824
30
3.417644186465883e-14
 70
     32
  0
VERTEX
  8
MY3DLAYER
10
428.8198051533952
20
38.180194846605445
30
3.990658334008931e-14
 70
     32
  0
VERTEX
  8
MY3DLAYER
10
431.2182684520019
20
40.774837825141994
30
4.0055025547472316e-14
 70
     32
  0
VERTEX
  8
MY3DLAYER
10
433.4057647468731
20
43.54966364683893
30
4.5900719221428784e-14
 70
     32
  0
VERTEX
  8
MY3DLAYER
10
435.36880739593465
20
46.48756458778243
30
4.616252984857465e-14
 70
     32
  0
VERTEX
  8
MY3DLAYER
10
437.0952935884771
20
49.57042751172057
30
4.6478776244428495e-14
 70
     32
  0
VERTEX
  8
MY3DLAYER
10
438.57457896300843
20
52.77924554357121
30
4.68475086447973e-14
 70
     32
  0
VERTEX
  8
MY3DLAYER
10
439.7975432332824
20
56.09423525312751
30
5.290638665691258e-14
 70
     32
  0
VERTEX
  8
MY3DLAYER
10
440.756646417896
20
59.49495862648439
30
5.337296141505452e-14
 70
     32
  0
VERTEX
  8
MY3DLAYER
10
441.4459753267818
20
62.9604490731898
30
5.388428929578314e-14
 70
     32
  0
VERTEX
  8
MY3DLAYER
10
441.8612800179913
20
66.46934069224712
30
5.443721779267996e-14
 70
     32
  0
VERTEX
  8
MY3DLAYER
10
442.00000000000057
20
70.00000000000021
30
5.502833791769423e-14
 70
     32
  0
VERTEX
  8
MY3DLAYER
10
441.8612800179913
20
73.53065930775331
30
5.5654005218687856e-14
 70
     32
  0
VERTEX
  8
MY3DLAYER
10
441.4459753267818
20
77.03955092681062
30
5.631036224869468e-14
 70
     32
  0
VERTEX
  8
MY3DLAYER
10
440.75664641789587
20
80.50504137351604
30
5.699336234836391e-14
 70
     32
  0
VERTEX
  8
MY3DLAYER
10
439.7975432332824
20
83.90576474687292
30
5.769879459496046e-14
 70
     32
  0
VERTEX
  8
MY3DLAYER
10
438.5745789630084
20
87.22075445642922
30
5.2782376799008236e-14
 70
     32
  0
VERTEX
  8
MY3DLAYER
10
437.095293588477
20
90.42957248827986
30
5.35195141790879e-14
 70
     32
  0
VERTEX
  8
MY3DLAYER
10
435.3688073959346
20
93.512435412218
30
5.426572907303238e-14
 70
     32
  0
VERTEX
  8
MY3DLAYER
10
433.40576474687305
20
96.45033635316149
30
5.5016420817878853e-14
 70
     32
  0
VERTEX
  8
MY3DLAYER
10
431.2182684520018
20
99.22516217485843
30
5.012702818429423e-14
 70
     32
  0
VERTEX
  8
MY3DLAYER
10
428.81980515339507
20
101.8198051533948
30
5.087278977174637e-14
 70
     32
  0
VERTEX
  8
MY3DLAYER
10
426.2251621748587
20
104.2182684520016
30
4.596924178186614e-14
 70
     32
  0
VERTEX
  8
MY3DLAYER
10
423.4503363531617
20
106.40576474687285
30
4.669171008660006e-14
 70
     32
  0
VERTEX
  8
MY3DLAYER
10
420.51243541221817
20
108.36880739593447
30
4.175587449841277e-14
 70
     32
  0
VERTEX
  8
MY3DLAYER
10
417.42957248828003
20
110.0952935884768
30
4.243725995303107e-14
 70
     32
  0
VERTEX
  8
MY3DLAYER
10
414.2207544564295
20
111.57457896300816
30
3.745179955235201e-14
 70
     32
  0
VERTEX
  8
MY3DLAYER
10
410.9057647468731
20
112.79754323328221
30
3.2435391220477543e-14
 70
     32
  0
VERTEX
  8
MY3DLAYER
10
407.5050413735161
20
113.75664641789568
30
3.302412368579665e-14
 70
     32
  0
VERTEX
  8
MY3DLAYER
10
404.0395509268108
20
114.4459753267815
30
2.7934501286695666e-14
 70
     32
  0
VERTEX
  8
MY3DLAYER
10
400.5306593077534
20
114.861280017991
30
2.8442997105729967e-14
 70
     32
  0
VERTEX
  8
MY3DLAYER
10
397.0000000000004
20
115.00000000000024
30
2.3266610166891618e-14
 70
     32
  0
VERTEX
  8
MY3DLAYER
10
363.50000000000034
20
115.00000000000021
30
2.7438072628698085e-14
 70
     32
  0
VERTEX
  8
MY3DLAYER
10
360.00000000000034
20
118.50000000000014
30
2.847700764858415e-14
 70
     32
  0
VERTEX
  8
MY3DLAYER
10
360.0000000000002
20
262.0
30
9.26840723309498e-14
 70
     32
  0
VERTEX
  8
MY3DLAYER
10
470.0000000000003
20
262.00000000000006
30
5.0787068078643596e-14
 70
     32
  0
VERTEX
  8
MY3DLAYER
10
470.0000000000005
20
2.7071678232459813e-13
30
3.3839597790574766e-14
 70
     32
  0
VERTEX
  8
MY3DLAYER
10
360.0000000000004
20
2.0354828933477616e-13
30
4.753693721740197e-14
 70
     32
  0
SEQEND
  0
POLYLINE
 8
Component#39
 66
     1
70
    8
 10
0.0
 20
 0.0
 30
0.0
  0
VERTEX
  8
MY3DLAYER
10
443.3807403920121
20
251.59413334214128
30
-8.424426018799253e-15
 70
     32
  0
VERTEX
  8
MY3DLAYER
10
443.5000000000004
20
252.50000000000006
30
-8.283179871016628e-15
 70
     32
  0
VERTEX
  8
MY3DLAYER
10
443.3807403920121
20
253.40586665785884
30
-8.112233008133538e-15
 70
     32
  0
VERTEX
  8
MY3DLAYER
10
443.0310889132459
20
254.25000000000003
30
-7.923235176352406e-15
 70
     32
  0
VERTEX
  8
MY3DLAYER
10
442.47487373415333
20
254.97487373415305
30
-7.729066265575432e-15
 70
     32
  0
VERTEX
  8
MY3DLAYER
10
441.7500000000004
20
255.53108891324558
30
-7.54295856619281e-15
 70
     32
  0
VERTEX
  8
MY3DLAYER
10
440.90586665785924
20
255.88074039201183
30
-7.377595010359904e-15
 70
     32
  0
VERTEX
  8
MY3DLAYER
10
440.00000000000034
20
256.00000000000017
30
-7.24424485113054e-15
 70
     32
  0
VERTEX
  8
MY3DLAYER
10
439.09413334214156
20
255.88074039201183
30
-7.151995681484668e-15
 70
     32
  0
VERTEX
  8
MY3DLAYER
10
438.2500000000004
20
255.53108891324558
30
-7.107134129884671e-15
 70
     32
  0
VERTEX
  8
MY3DLAYER
10
437.52512626584746
20
254.97487373415305
30
-7.11271743693485e-15
 70
     32
  0
VERTEX
  8
MY3DLAYER
10
436.9689110867548
20
254.25000000000003
30
-7.168365109486643e-15
 70
     32
  0
VERTEX
  8
MY3DLAYER
10
436.6192596079886
20
253.40586665785884
30
-7.270284850617719e-15
 70
     32
  0
VERTEX
  8
MY3DLAYER
10
436.50000000000034
20
252.50000000000006
30
-7.41153099840035e-15
 70
     32
  0
VERTEX
  8
MY3DLAYER
10
436.6192596079886
20
251.59413334214128
30
-7.582477861283435e-15
 70
     32
  0
VERTEX
  8
MY3DLAYER
10
436.9689110867548
20
250.75000000000009
30
-7.771475693064561e-15
 70
     32
  0
VERTEX
  8
MY3DLAYER
10
437.52512626584746
20
250.02512626584706
30
-7.965644603841535e-15
 70
     32
  0
VERTEX
  8
MY3DLAYER
10
438.2500000000004
20
249.4689110867545
30
-8.151752303224157e-15
 70
     32
  0
VERTEX
  8
MY3DLAYER
10
439.09413334214156
20
249.11925960798828
30
-8.317115859057063e-15
 70
     32
  0
VERTEX
  8
MY3DLAYER
10
440.00000000000034
20
248.99999999999994
30
-8.450466018286431e-15
 70
     32
  0
VERTEX
  8
MY3DLAYER
10
440.90586665785924
20
249.11925960798828
30
-8.542715187932299e-15
 70
     32
  0
VERTEX
  8
MY3DLAYER
10
441.7500000000004
20
249.4689110867545
30
-8.587576739532296e-15
 70
     32
  0
VERTEX
  8
MY3DLAYER
10
442.47487373415333
20
250.02512626584706
30
-8.581993432482118e-15
 70
     32
  0
VERTEX
  8
MY3DLAYER
10
443.0310889132459
20
250.75000000000009
30
-8.526345759930324e-15
 70
     32
  0
VERTEX
  8
MY3DLAYER
10
443.3807403920121
20
251.59413334214128
30
-8.424426018799253e-15
 70
     32
  0
SEQEND
  0
POLYLINE
 8
Component#39
 66
     1
70
    8
 10
0.0
 20
 0.0
 30
0.0
  0
VERTEX
  8
MY3DLAYER
10
393.0310889132459
20
250.75000000000006
30
1.6689770656877409e-13
 70
     32
  0
VERTEX
  8
MY3DLAYER
10
393.3807403920121
20
251.59413334214122
30
1.6699962630990515e-13
 70
     32
  0
VERTEX
  8
MY3DLAYER
10
393.5000000000004
20
252.5
30
1.6714087245768776e-13
 70
     32
  0
VERTEX
  8
MY3DLAYER
10
393.3807403920121
20
253.40586665785878
30
1.6731181932057086e-13
 70
     32
  0
VERTEX
  8
MY3DLAYER
10
393.0310889132459
20
254.24999999999997
30
1.67500817152352e-13
 70
     32
  0
VERTEX
  8
MY3DLAYER
10
392.47487373415333
20
254.974873734153
30
1.6769498606312896e-13
 70
     32
  0
VERTEX
  8
MY3DLAYER
10
391.75000000000034
20
255.53108891324555
30
1.678810937625116e-13
 70
     32
  0
VERTEX
  8
MY3DLAYER
10
390.9058666578591
20
255.88074039201177
30
1.6804645731834448e-13
 70
     32
  0
VERTEX
  8
MY3DLAYER
10
390.00000000000034
20
256.0000000000001
30
1.6817980747757385e-13
 70
     32
  0
VERTEX
  8
MY3DLAYER
10
389.0941333421415
20
255.88074039201177
30
1.6827205664721971e-13
 70
     32
  0
VERTEX
  8
MY3DLAYER
10
388.25000000000034
20
255.53108891324555
30
1.683169181988197e-13
 70
     32
  0
VERTEX
  8
MY3DLAYER
10
387.5251262658474
20
254.974873734153
30
1.6831133489176956e-13
 70
     32
  0
VERTEX
  8
MY3DLAYER
10
386.9689110867548
20
254.24999999999997
30
1.6825568721921774e-13
 70
     32
  0
VERTEX
  8
MY3DLAYER
10
386.6192596079886
20
253.40586665785878
30
1.6815376747808667e-13
 70
     32
  0
VERTEX
  8
MY3DLAYER
10
386.50000000000034
20
252.5
30
1.6801252133030404e-13
 70
     32
  0
VERTEX
  8
MY3DLAYER
10
386.6192596079886
20
251.59413334214122
30
1.6784157446742096e-13
 70
     32
  0
VERTEX
  8
MY3DLAYER
10
386.9689110867548
20
250.75000000000006
30
1.6765257663563982e-13
 70
     32
  0
VERTEX
  8
MY3DLAYER
10
387.5251262658474
20
250.025126265847
30
1.6745840772486287e-13
 70
     32
  0
VERTEX
  8
MY3DLAYER
10
388.25000000000034
20
249.46891108675447
30
1.6727230002548025e-13
 70
     32
  0
VERTEX
  8
MY3DLAYER
10
389.09413334214156
20
249.11925960798825
30
1.6710693646964735e-13
 70
     32
  0
VERTEX
  8
MY3DLAYER
10
390.00000000000034
20
248.99999999999991
30
1.6697358631041797e-13
 70
     32
  0
VERTEX
  8
MY3DLAYER
10
390.9058666578592
20
249.11925960798825
30
1.668813371407721e-13
 70
     32
  0
VERTEX
  8
MY3DLAYER
10
391.7500000000004
20
249.46891108675447
30
1.6683647558917212e-13
 70
     32
  0
VERTEX
  8
MY3DLAYER
10
392.47487373415333
20
250.025126265847
30
1.668420588962223e-13
 70
     32
  0
VERTEX
  8
MY3DLAYER
10
393.0310889132459
20
250.75000000000006
30
1.6689770656877409e-13
 70
     32
  0
SEQEND
  0
POLYLINE
 8
Component#39
 66
     1
70
    8
 10
0.0
 20
 0.0
 30
0.0
  0
VERTEX
  8
MY3DLAYER
10
390.90586665785924
20
134.38074039201217
30
1.583897701329023e-13
 70
     32
  0
VERTEX
  8
MY3DLAYER
10
390.0000000000004
20
134.50000000000034
30
1.5852312029213169e-13
 70
     32
  0
VERTEX
  8
MY3DLAYER
10
389.0941333421416
20
134.38074039201217
30
1.5861536946177754e-13
 70
     32
  0
VERTEX
  8
MY3DLAYER
10
388.2500000000004
20
134.03108891324595
30
1.5866023101337758e-13
 70
     32
  0
VERTEX
  8
MY3DLAYER
10
387.52512626584746
20
133.4748737341534
30
1.5865464770632736e-13
 70
     32
  0
VERTEX
  8
MY3DLAYER
10
386.9689110867549
20
132.75000000000034
30
1.5859900003377557e-13
 70
     32
  0
VERTEX
  8
MY3DLAYER
10
386.6192596079886
20
131.90586665785918
30
1.584970802926445e-13
 70
     32
  0
VERTEX
  8
MY3DLAYER
10
386.5000000000004
20
131.0000000000004
30
1.5835583414486187e-13
 70
     32
  0
VERTEX
  8
MY3DLAYER
10
386.6192596079886
20
130.09413334214162
30
1.581848872819788e-13
 70
     32
  0
VERTEX
  8
MY3DLAYER
10
386.9689110867549
20
129.25000000000043
30
1.5799588945019768e-13
 70
     32
  0
VERTEX
  8
MY3DLAYER
10
387.52512626584746
20
128.5251262658474
30
1.578017205394207e-13
 70
     32
  0
VERTEX
  8
MY3DLAYER
10
388.2500000000004
20
127.96891108675487
30
1.5761561284003806e-13
 70
     32
  0
VERTEX
  8
MY3DLAYER
10
389.0941333421416
20
127.61925960798864
30
1.5745024928420518e-13
 70
     32
  0
VERTEX
  8
MY3DLAYER
10
390.0000000000004
20
127.50000000000048
30
1.573168991249758e-13
 70
     32
  0
VERTEX
  8
MY3DLAYER
10
390.90586665785924
20
127.61925960798864
30
1.5722464995532994e-13
 70
     32
  0
VERTEX
  8
MY3DLAYER
10
391.7500000000004
20
127.96891108675487
30
1.5717978840372995e-13
 70
     32
  0
VERTEX
  8
MY3DLAYER
10
392.47487373415333
20
128.52512626584743
30
1.5718537171078013e-13
 70
     32
  0
VERTEX
  8
MY3DLAYER
10
393.031088913246
20
129.25000000000045
30
1.5724101938333192e-13
 70
     32
  0
VERTEX
  8
MY3DLAYER
10
393.38074039201217
20
130.09413334214165
30
1.5734293912446299e-13
 70
     32
  0
VERTEX
  8
MY3DLAYER
10
393.50000000000045
20
131.00000000000043
30
1.5748418527224562e-13
 70
     32
  0
VERTEX
  8
MY3DLAYER
10
393.38074039201217
20
131.9058666578592
30
1.576551321351287e-13
 70
     32
  0
VERTEX
  8
MY3DLAYER
10
393.031088913246
20
132.75000000000037
30
1.578441299669098e-13
 70
     32
  0
VERTEX
  8
MY3DLAYER
10
392.47487373415333
20
133.4748737341534
30
1.5803829887768679e-13
 70
     32
  0
VERTEX
  8
MY3DLAYER
10
391.7500000000004
20
134.03108891324595
30
1.582244065770694e-13
 70
     32
  0
VERTEX
  8
MY3DLAYER
10
390.90586665785924
20
134.38074039201217
30
1.583897701329023e-13
 70
     32
  0
SEQEND
  0
POLYLINE
 8
Component#39
 66
     1
70
    8
 10
0.0
 20
 0.0
 30
0.0
  0
VERTEX
  8
MY3DLAYER
10
440.9058666578594
20
6.119259607988686
30
1.7263374161949656e-14
 70
     32
  0
VERTEX
  8
MY3DLAYER
10
441.7500000000005
20
6.468911086754915
30
1.7218512610349654e-14
 70
     32
  0
VERTEX
  8
MY3DLAYER
10
442.47487373415345
20
7.025126265847466
30
1.722409591739983e-14
 70
     32
  0
VERTEX
  8
MY3DLAYER
10
443.0310889132461
20
7.750000000000494
30
1.7279743589951637e-14
 70
     32
  0
VERTEX
  8
MY3DLAYER
10
443.38074039201234
20
8.594133342141678
30
1.7381663331082708e-14
 70
     32
  0
VERTEX
  8
MY3DLAYER
10
443.50000000000057
20
9.500000000000457
30
1.7522909478865328e-14
 70
     32
  0
VERTEX
  8
MY3DLAYER
10
443.38074039201234
20
10.405866657859235
30
1.7693856341748417e-14
 70
     32
  0
VERTEX
  8
MY3DLAYER
10
443.0310889132461
20
11.25000000000042
30
1.788285417352955e-14
 70
     32
  0
VERTEX
  8
MY3DLAYER
10
442.47487373415345
20
11.974873734153446
30
1.8077023084306524e-14
 70
     32
  0
VERTEX
  8
MY3DLAYER
10
441.7500000000005
20
12.531088913245995
30
1.8263130783689146e-14
 70
     32
  0
VERTEX
  8
MY3DLAYER
10
440.90586665785935
20
12.880740392012225
30
1.8428494339522057e-14
 70
     32
  0
VERTEX
  8
MY3DLAYER
10
440.00000000000057
20
13.00000000000056
30
1.8561844498751424e-14
 70
     32
  0
VERTEX
  8
MY3DLAYER
10
439.0941333421417
20
12.880740392012223
30
1.8654093668397288e-14
 70
     32
  0
VERTEX
  8
MY3DLAYER
10
438.2500000000005
20
12.531088913245993
30
1.869895521999729e-14
 70
     32
  0
VERTEX
  8
MY3DLAYER
10
437.5251262658476
20
11.974873734153444
30
1.869337191294711e-14
 70
     32
  0
VERTEX
  8
MY3DLAYER
10
436.968911086755
20
11.250000000000416
30
1.8637724240395317e-14
 70
     32
  0
VERTEX
  8
MY3DLAYER
10
436.6192596079888
20
10.405866657859232
30
1.8535804499264236e-14
 70
     32
  0
VERTEX
  8
MY3DLAYER
10
436.5000000000005
20
9.500000000000453
30
1.8394558351481616e-14
 70
     32
  0
VERTEX
  8
MY3DLAYER
10
436.6192596079888
20
8.594133342141673
30
1.8223611488598527e-14
 70
     32
  0
VERTEX
  8
MY3DLAYER
10
436.968911086755
20
7.750000000000489
30
1.8034613656817393e-14
 70
     32
  0
VERTEX
  8
MY3DLAYER
10
437.5251262658476
20
7.025126265847462
30
1.784044474604042e-14
 70
     32
  0
VERTEX
  8
MY3DLAYER
10
438.2500000000005
20
6.468911086754914
30
1.7654337046657798e-14
 70
     32
  0
VERTEX
  8
MY3DLAYER
10
439.0941333421417
20
6.119259607988685
30
1.7488973490824887e-14
 70
     32
  0
VERTEX
  8
MY3DLAYER
10
440.00000000000057
20
6.000000000000348
30
1.735562333159553e-14
 70
     32
  0
VERTEX
  8
MY3DLAYER
10
440.9058666578594
20
6.119259607988686
30
1.7263374161949656e-14
 70
     32
  0
SEQEND
  0
POLYLINE
 8
Component#39
 66
     1
70
    8
 10
0.0
 20
 0.0
 30
0.0
  0
VERTEX
  8
MY3DLAYER
10
393.5000000000005
20
9.500000000000425
30
1.4782749808680337e-13
 70
     32
  0
VERTEX
  8
MY3DLAYER
10
393.3807403920123
20
10.405866657859205
30
1.4799844494968647e-13
 70
     32
  0
VERTEX
  8
MY3DLAYER
10
393.03108891324604
20
11.250000000000389
30
1.481874427814676e-13
 70
     32
  0
VERTEX
  8
MY3DLAYER
10
392.47487373415345
20
11.974873734153416
30
1.483816116922446e-13
 70
     32
  0
VERTEX
  8
MY3DLAYER
10
391.7500000000005
20
12.531088913245965
30
1.485677193916272e-13
 70
     32
  0
VERTEX
  8
MY3DLAYER
10
390.90586665785935
20
12.880740392012191
30
1.4873308294746012e-13
 70
     32
  0
VERTEX
  8
MY3DLAYER
10
390.0000000000005
20
13.00000000000053
30
1.4886643310668947e-13
 70
     32
  0
VERTEX
  8
MY3DLAYER
10
389.0941333421417
20
12.880740392012191
30
1.4895868227633533e-13
 70
     32
  0
VERTEX
  8
MY3DLAYER
10
388.2500000000005
20
12.531088913245963
30
1.4900354382793534e-13
 70
     32
  0
VERTEX
  8
MY3DLAYER
10
387.5251262658476
20
11.974873734153412
30
1.4899796052088517e-13
 70
     32
  0
VERTEX
  8
MY3DLAYER
10
386.968911086755
20
11.250000000000385
30
1.4894231284833338e-13
 70
     32
  0
VERTEX
  8
MY3DLAYER
10
386.61925960798874
20
10.405866657859201
30
1.4884039310720228e-13
 70
     32
  0
VERTEX
  8
MY3DLAYER
10
386.5000000000005
20
9.500000000000423
30
1.4869914695941965e-13
 70
     32
  0
VERTEX
  8
MY3DLAYER
10
386.61925960798874
20
8.594133342141642
30
1.4852820009653658e-13
 70
     32
  0
VERTEX
  8
MY3DLAYER
10
386.968911086755
20
7.750000000000459
30
1.4833920226475543e-13
 70
     32
  0
VERTEX
  8
MY3DLAYER
10
387.5251262658476
20
7.025126265847432
30
1.4814503335397848e-13
 70
     32
  0
VERTEX
  8
MY3DLAYER
10
388.2500000000005
20
6.468911086754883
30
1.4795892565459581e-13
 70
     32
  0
VERTEX
  8
MY3DLAYER
10
389.0941333421417
20
6.1192596079886545
30
1.477935620987629e-13
 70
     32
  0
VERTEX
  8
MY3DLAYER
10
390.0000000000005
20
6.000000000000318
30
1.4766021193953356e-13
 70
     32
  0
VERTEX
  8
MY3DLAYER
10
390.90586665785935
20
6.1192596079886545
30
1.4756796276988767e-13
 70
     32
  0
VERTEX
  8
MY3DLAYER
10
391.7500000000005
20
6.468911086754885
30
1.4752310121828769e-13
 70
     32
  0
VERTEX
  8
MY3DLAYER
10
392.47487373415345
20
7.025126265847435
30
1.4752868452533786e-13
 70
     32
  0
VERTEX
  8
MY3DLAYER
10
393.03108891324604
20
7.750000000000463
30
1.4758433219788965e-13
 70
     32
  0
VERTEX
  8
MY3DLAYER
10
393.3807403920123
20
8.594133342141646
30
1.4768625193902074e-13
 70
     32
  0
VERTEX
  8
MY3DLAYER
10
393.5000000000005
20
9.500000000000425
30
1.4782749808680337e-13
 70
     32
  0
SEQEND
  0
POLYLINE
 8
Component#39
 66
     1
70
    8
 10
0.0
 20
 0.0
 30
0.0
  0
VERTEX
  8
MY3DLAYER
10
443.50000000000045
20
131.00000000000043
30
4.61986480392439e-15
 70
     32
  0
VERTEX
  8
MY3DLAYER
10
443.3807403920122
20
131.9058666578592
30
4.79081166680747e-15
 70
     32
  0
VERTEX
  8
MY3DLAYER
10
443.031088913246
20
132.7500000000004
30
4.979809498588602e-15
 70
     32
  0
VERTEX
  8
MY3DLAYER
10
442.47487373415345
20
133.47487373415342
30
5.173978409365575e-15
 70
     32
  0
VERTEX
  8
MY3DLAYER
10
441.7500000000005
20
134.03108891324598
30
5.360086108748198e-15
 70
     32
  0
VERTEX
  8
MY3DLAYER
10
440.90586665785935
20
134.3807403920122
30
5.525449664581109e-15
 70
     32
  0
VERTEX
  8
MY3DLAYER
10
440.00000000000045
20
134.50000000000037
30
5.658799823810447e-15
 70
     32
  0
VERTEX
  8
MY3DLAYER
10
439.0941333421417
20
134.3807403920122
30
5.75104899345634e-15
 70
     32
  0
VERTEX
  8
MY3DLAYER
10
438.2500000000005
20
134.03108891324598
30
5.7959105450563324e-15
 70
     32
  0
VERTEX
  8
MY3DLAYER
10
437.5251262658476
20
133.47487373415342
30
5.7903272380061636e-15
 70
     32
  0
VERTEX
  8
MY3DLAYER
10
436.96891108675493
20
132.7500000000004
30
5.734679565454369e-15
 70
     32
  0
VERTEX
  8
MY3DLAYER
10
436.6192596079887
20
131.9058666578592
30
5.632759824323289e-15
 70
     32
  0
VERTEX
  8
MY3DLAYER
10
436.50000000000045
20
131.00000000000043
30
5.491513676540668e-15
 70
     32
  0
VERTEX
  8
MY3DLAYER
10
436.6192596079887
20
130.09413334214165
30
5.320566813657578e-15
 70
     32
  0
VERTEX
  8
MY3DLAYER
10
436.96891108675493
20
129.25000000000048
30
5.131568981876446e-15
 70
     32
  0
VERTEX
  8
MY3DLAYER
10
437.5251262658476
20
128.52512626584743
30
4.9374000710994734e-15
 70
     32
  0
VERTEX
  8
MY3DLAYER
10
438.2500000000005
20
127.9689110867549
30
4.75129237171685e-15
 70
     32
  0
VERTEX
  8
MY3DLAYER
10
439.0941333421417
20
127.61925960798867
30
4.5859288158839385e-15
 70
     32
  0
VERTEX
  8
MY3DLAYER
10
440.00000000000045
20
127.50000000000051
30
4.4525786566546015e-15
 70
     32
  0
VERTEX
  8
MY3DLAYER
10
440.90586665785935
20
127.61925960798867
30
4.3603294870087086e-15
 70
     32
  0
VERTEX
  8
MY3DLAYER
10
441.7500000000005
20
127.9689110867549
30
4.315467935408706e-15
 70
     32
  0
VERTEX
  8
MY3DLAYER
10
442.47487373415345
20
128.52512626584743
30
4.321051242458885e-15
 70
     32
  0
VERTEX
  8
MY3DLAYER
10
443.031088913246
20
129.25000000000048
30
4.376698915010679e-15
 70
     32
  0
VERTEX
  8
MY3DLAYER
10
443.3807403920122
20
130.09413334214165
30
4.478618656141759e-15
 70
     32
  0
VERTEX
  8
MY3DLAYER
10
443.50000000000045
20
131.00000000000043
30
4.61986480392439e-15
 70
     32
  0
SEQEND
 0
ENDSEC
 0
EOF
