 0
SECTION
 2
ENTITIES
  0
POLYLINE
 8
Component#30
 66
     1
70
    8
 10
0.0
 20
 0.0
 30
0.0
  0
VERTEX
  8
MY3DLAYER
10
240.00000000000034
20
2.1576074260565278e-13
30
2.0916307685122883e-15
 70
     32
  0
VERTEX
  8
MY3DLAYER
10
240.0000000000002
20
302.0000000000003
30
2.555809814906361e-13
 70
     32
  0
VERTEX
  8
MY3DLAYER
10
350.0000000000003
20
302.00000000000034
30
1.632504232805911e-13
 70
     32
  0
VERTEX
  8
MY3DLAYER
10
350.0000000000004
20
2.7071678232459803e-13
30
4.511946372076636e-14
 70
     32
  0
VERTEX
  8
MY3DLAYER
10
240.00000000000034
20
2.1576074260565278e-13
30
2.0916307685122883e-15
 70
     32
  0
SEQEND
  0
POLYLINE
 8
Component#30
 66
     1
70
    8
 10
0.0
 20
 0.0
 30
0.0
  0
VERTEX
  8
MY3DLAYER
10
270.0000000000002
20
237.00000000000028
30
2.24036744738234e-13
 70
     32
  0
VERTEX
  8
MY3DLAYER
10
270.00000000000034
20
65.00000000000024
30
1.0222505830654663e-13
 70
     32
  0
VERTEX
  8
MY3DLAYER
10
270.03211615142123
20
64.01895306154817
30
1.0141416082419096e-13
 70
     32
  0
VERTEX
  8
MY3DLAYER
10
270.1283270793931
20
63.04210711669949
30
1.0063186097295329e-13
 70
     32
  0
VERTEX
  8
MY3DLAYER
10
270.2882207939518
20
62.07364516975831
30
9.988150868089765e-14
 70
     32
  0
VERTEX
  8
MY3DLAYER
10
270.5111126056643
20
61.11771432346241
30
9.916631707173484e-14
 70
     32
  0
VERTEX
  8
MY3DLAYER
10
270.79604805757367
20
60.178408020452906
30
1.0412928167082927e-13
 70
     32
  0
VERTEX
  8
MY3DLAYER
10
271.14180701233096
20
59.25974851452392
30
1.0349343543046249e-13
 70
     32
  0
VERTEX
  8
MY3DLAYER
10
271.54690887701
20
58.365669646715205
30
1.0290143410694861e-13
 70
     32
  0
VERTEX
  8
MY3DLAYER
10
272.0096189432337
20
57.500000000000334
30
1.0235581274084063e-13
 70
     32
  0
VERTEX
  8
MY3DLAYER
10
272.52795581546206
20
56.66644650470629
30
1.0749884073168919e-13
 70
     32
  0
VERTEX
  8
MY3DLAYER
10
273.0996998956317
20
55.868578564869445
30
1.0705277997268865e-13
 70
     32
  0
VERTEX
  8
MY3DLAYER
10
273.7224028878156
20
55.109812773499236
30
1.0665947352958556e-13
 70
     32
  0
VERTEX
  8
MY3DLAYER
10
274.39339828220204
20
54.39339828220206
30
1.1196053856604644e-13
 70
     32
  0
VERTEX
  8
MY3DLAYER
10
275.1098127734993
20
53.7224028878157
30
1.1167756023637419e-13
 70
     32
  0
VERTEX
  8
MY3DLAYER
10
275.86857856486955
20
53.0996998956318
30
1.170916162274114e-13
 70
     32
  0
VERTEX
  8
MY3DLAYER
10
276.6664465047062
20
52.52795581546217
30
1.1692380784884687e-13
 70
     32
  0
VERTEX
  8
MY3DLAYER
10
277.5000000000002
20
52.009618943233704
30
1.2245471961211155e-13
 70
     32
  0
VERTEX
  8
MY3DLAYER
10
278.3656696467153
20
51.54690887700992
30
1.2804488539763318e-13
 70
     32
  0
VERTEX
  8
MY3DLAYER
10
279.259748514524
20
51.14180701233105
30
1.280545853510194e-13
 70
     32
  0
VERTEX
  8
MY3DLAYER
10
280.1784080204528
20
50.79604805757376
30
1.3376364386577195e-13
 70
     32
  0
VERTEX
  8
MY3DLAYER
10
281.1177143234625
20
50.51111260566423
30
1.3389189900548342e-13
 70
     32
  0
VERTEX
  8
MY3DLAYER
10
282.0736451697584
20
50.2882207939519
30
1.397186674921472e-13
 70
     32
  0
VERTEX
  8
MY3DLAYER
10
283.04210711669947
20
50.12832707939311
30
1.456032163022803e-13
 70
     32
  0
VERTEX
  8
MY3DLAYER
10
284.0189530615481
20
50.03211615142124
30
1.459045649881847e-13
 70
     32
  0
VERTEX
  8
MY3DLAYER
10
285.00000000000034
20
50.000000000000234
30
1.5190128905871488e-13
 70
     32
  0
VERTEX
  8
MY3DLAYER
10
305.0000000000003
20
50.00000000000025
30
8.640540286742483e-14
 70
     32
  0
VERTEX
  8
MY3DLAYER
10
305.98104693845255
20
50.032116151421256
30
8.681610855810032e-14
 70
     32
  0
VERTEX
  8
MY3DLAYER
10
306.95789288330116
20
50.128327079393124
30
8.727897012919651e-14
 70
     32
  0
VERTEX
  8
MY3DLAYER
10
307.92635483024225
20
50.28822079395173
30
8.779200553640623e-14
 70
     32
  0
VERTEX
  8
MY3DLAYER
10
308.8822856765381
20
50.51111260566424
30
8.835301788335342e-14
 70
     32
  0
VERTEX
  8
MY3DLAYER
10
309.8215919795478
20
50.79604805757359
30
8.895960482903999e-14
 70
     32
  0
VERTEX
  8
MY3DLAYER
10
310.74025148547673
20
51.14180701233088
30
8.396923590994394e-14
 70
     32
  0
VERTEX
  8
MY3DLAYER
10
311.63433035328535
20
51.54690887700993
30
8.4658995523289e-14
 70
     32
  0
VERTEX
  8
MY3DLAYER
10
312.5000000000004
20
52.00961894323372
30
8.538599704742119e-14
 70
     32
  0
VERTEX
  8
MY3DLAYER
10
313.33355349529444
20
52.52795581546201
30
8.614712735020272e-14
 70
     32
  0
VERTEX
  8
MY3DLAYER
10
314.1314214351312
20
53.09969989563163
30
9.257906011992218e-14
 70
     32
  0
VERTEX
  8
MY3DLAYER
10
314.8901872265015
20
53.72240288781553
30
9.339853796163462e-14
 70
     32
  0
VERTEX
  8
MY3DLAYER
10
315.6066017177987
20
54.39339828220207
30
9.424198471050906e-14
 70
     32
  0
VERTEX
  8
MY3DLAYER
10
316.27759711218505
20
55.10981277349926
30
9.510578859807838e-14
 70
     32
  0
VERTEX
  8
MY3DLAYER
10
316.9003001043689
20
55.868578564869466
30
9.59862506834825e-14
 70
     32
  0
VERTEX
  8
MY3DLAYER
10
317.47204418453856
20
56.66644650470614
30
9.687960069290067e-14
 70
     32
  0
VERTEX
  8
MY3DLAYER
10
317.99038105676703
20
57.50000000000018
30
9.778201316444315e-14
 70
     32
  0
VERTEX
  8
MY3DLAYER
10
318.4530911229908
20
58.365669646715226
30
9.868962382936583e-14
 70
     32
  0
VERTEX
  8
MY3DLAYER
10
318.8581929876698
20
59.25974851452394
30
9.959854615946251e-14
 70
     32
  0
VERTEX
  8
MY3DLAYER
10
319.20395194242707
20
60.178408020452764
30
1.0614482097487121e-13
 70
     32
  0
VERTEX
  8
MY3DLAYER
10
319.48888739433653
20
61.117714323462444
30
1.0704470125045333e-13
 70
     32
  0
VERTEX
  8
MY3DLAYER
10
319.711779206049
20
62.07364516975834
30
1.0793426652581234e-13
 70
     32
  0
VERTEX
  8
MY3DLAYER
10
319.87167292060764
20
63.042107116699526
30
1.0880970754587059e-13
 70
     32
  0
VERTEX
  8
MY3DLAYER
10
319.96788384857956
20
64.0189530615482
30
1.15307208502876e-13
 70
     32
  0
VERTEX
  8
MY3DLAYER
10
320.0000000000005
20
65.00000000000027
30
1.1614323122883914e-13
 70
     32
  0
VERTEX
  8
MY3DLAYER
10
320.00000000000034
20
237.00000000000034
30
1.3079619132370633e-13
 70
     32
  0
VERTEX
  8
MY3DLAYER
10
319.9678838485794
20
237.9810469384524
30
1.3160708880606204e-13
 70
     32
  0
VERTEX
  8
MY3DLAYER
10
319.8716729206075
20
238.95789288330107
30
1.3238938865729967e-13
 70
     32
  0
VERTEX
  8
MY3DLAYER
10
319.71177920604873
20
239.92635483024227
30
1.3313974094935527e-13
 70
     32
  0
VERTEX
  8
MY3DLAYER
10
319.4888873943363
20
240.88228567653817
30
1.3385493255851812e-13
 70
     32
  0
VERTEX
  8
MY3DLAYER
10
319.2039519424269
20
241.82159197954783
30
1.345319009245196e-13
 70
     32
  0
VERTEX
  8
MY3DLAYER
10
318.8581929876696
20
242.74025148547668
30
1.2952781419979048e-13
 70
     32
  0
VERTEX
  8
MY3DLAYER
10
318.45309112299066
20
243.63433035328538
30
1.3011981552330434e-13
 70
     32
  0
VERTEX
  8
MY3DLAYER
10
317.9903810567669
20
244.50000000000043
30
1.3066543688941247e-13
 70
     32
  0
VERTEX
  8
MY3DLAYER
10
317.47204418453845
20
245.33355349529447
30
1.3116234186365968e-13
 70
     32
  0
VERTEX
  8
MY3DLAYER
10
316.90030010436885
20
246.13142143513113
30
1.3160840262266e-13
 70
     32
  0
VERTEX
  8
MY3DLAYER
10
316.27759711218494
20
246.89018722650135
30
1.3200170906576314e-13
 70
     32
  0
VERTEX
  8
MY3DLAYER
10
315.6066017177986
20
247.60660171779853
30
1.3234057699439811e-13
 70
     32
  0
VERTEX
  8
MY3DLAYER
10
314.8901872265014
20
248.27759711218508
30
1.3826348828916635e-13
 70
     32
  0
VERTEX
  8
MY3DLAYER
10
314.13142143513113
20
248.90030010436897
30
1.3848936526322487e-13
 70
     32
  0
VERTEX
  8
MY3DLAYER
10
313.3335534952943
20
249.4720441845386
30
1.3865717364178937e-13
 70
     32
  0
VERTEX
  8
MY3DLAYER
10
312.5000000000003
20
249.99038105676706
30
1.3876619484362051e-13
 70
     32
  0
VERTEX
  8
MY3DLAYER
10
311.63433035328535
20
250.45309112299066
30
1.3881596202319455e-13
 70
     32
  0
VERTEX
  8
MY3DLAYER
10
310.74025148547673
20
250.85819298766972
30
1.3880626206980853e-13
 70
     32
  0
VERTEX
  8
MY3DLAYER
10
309.82159197954775
20
251.203951942427
30
1.387371365201517e-13
 70
     32
  0
VERTEX
  8
MY3DLAYER
10
308.8822856765381
20
251.48888739433636
30
1.3860888138044012e-13
 70
     32
  0
VERTEX
  8
MY3DLAYER
10
307.92635483024225
20
251.71177920604887
30
1.3842204585887223e-13
 70
     32
  0
VERTEX
  8
MY3DLAYER
10
306.95789288330116
20
251.87167292060766
30
1.4381736297893074e-13
 70
     32
  0
VERTEX
  8
MY3DLAYER
10
305.98104693845244
20
251.96788384857953
30
1.435160142930263e-13
 70
     32
  0
VERTEX
  8
MY3DLAYER
10
305.0000000000003
20
252.00000000000054
30
1.4315922318759197e-13
 70
     32
  0
VERTEX
  8
MY3DLAYER
10
285.0000000000004
20
252.00000000000048
30
2.8761417089022316e-13
 70
     32
  0
VERTEX
  8
MY3DLAYER
10
284.0189530615482
20
251.96788384857948
30
2.872034651995477e-13
 70
     32
  0
VERTEX
  8
MY3DLAYER
10
283.0421071166996
20
251.8716729206076
30
2.811006706633557e-13
 70
     32
  0
VERTEX
  8
MY3DLAYER
10
282.0736451697584
20
251.711779206049
30
2.8058763525614593e-13
 70
     32
  0
VERTEX
  8
MY3DLAYER
10
281.1177143234625
20
251.4888873943365
30
2.743866899441029e-13
 70
     32
  0
VERTEX
  8
MY3DLAYER
10
280.17840802045293
20
251.20395194242715
30
2.737801029984164e-13
 70
     32
  0
VERTEX
  8
MY3DLAYER
10
279.2597485145239
20
250.85819298766984
30
2.674906059873209e-13
 70
     32
  0
VERTEX
  8
MY3DLAYER
10
278.3656696467153
20
250.4530911229908
30
2.6680084637397575e-13
 70
     32
  0
VERTEX
  8
MY3DLAYER
10
277.50000000000034
20
249.990381056767
30
2.6043391188474784e-13
 70
     32
  0
VERTEX
  8
MY3DLAYER
10
276.6664465047063
20
249.47204418453856
30
2.5967278158196623e-13
 70
     32
  0
VERTEX
  8
MY3DLAYER
10
275.86857856486944
20
248.9003001043689
30
2.5324084881224667e-13
 70
     32
  0
VERTEX
  8
MY3DLAYER
10
275.10981277349924
20
248.27759711218502
30
2.524213709705343e-13
 70
     32
  0
VERTEX
  8
MY3DLAYER
10
274.39339828220204
20
247.60660171779867
30
2.5157792422166e-13
 70
     32
  0
VERTEX
  8
MY3DLAYER
10
273.7224028878155
20
246.8901872265015
30
2.450741873689948e-13
 70
     32
  0
VERTEX
  8
MY3DLAYER
10
273.0996998956317
20
246.13142143513127
30
2.441937252835907e-13
 70
     32
  0
VERTEX
  8
MY3DLAYER
10
272.527955815462
20
245.33355349529444
30
2.4330037527417235e-13
 70
     32
  0
VERTEX
  8
MY3DLAYER
10
272.0096189432336
20
244.5000000000004
30
2.3675802983753414e-13
 70
     32
  0
VERTEX
  8
MY3DLAYER
10
271.5469088770099
20
243.63433035328535
30
2.3585041917261143e-13
 70
     32
  0
VERTEX
  8
MY3DLAYER
10
271.14180701233084
20
242.74025148547662
30
2.349414968425147e-13
 70
     32
  0
VERTEX
  8
MY3DLAYER
10
270.79604805757356
20
241.8215919795478
30
2.3403515499220186e-13
 70
     32
  0
VERTEX
  8
MY3DLAYER
10
270.5111126056642
20
240.88228567653812
30
2.27495341751524e-13
 70
     32
  0
VERTEX
  8
MY3DLAYER
10
270.2882207939517
20
239.92635483024222
30
2.2660577647616498e-13
 70
     32
  0
VERTEX
  8
MY3DLAYER
10
270.128327079393
20
238.95789288330104
30
2.2573033545610666e-13
 70
     32
  0
VERTEX
  8
MY3DLAYER
10
270.0321161514211
20
237.98104693845235
30
2.248727674641971e-13
 70
     32
  0
VERTEX
  8
MY3DLAYER
10
270.0000000000002
20
237.00000000000028
30
2.24036744738234e-13
 70
     32
  0
SEQEND
 0
ENDSEC
 0
EOF
