 0
SECTION
 2
ENTITIES
  0
POLYLINE
 8
PIPESLOT
 66
     1
70
    8
 10
0.0
 20
 0.0
 30
0.0
  0
VERTEX
  8
MY3DLAYER
10
522.7955549365229
20
191.99999999999974
30
-9.587886040662851e-14
 70
     32
  0
VERTEX
  8
MY3DLAYER
10
523.0000000000003
20
91.69999996296612
30
-4.737543690680468e-13
 70
     32
  0
VERTEX
  8
MY3DLAYER
10
522.7955549508769
20
90.14708570379068
30
-4.568345701727594e-13
 70
     32
  0
VERTEX
  8
MY3DLAYER
10
522.1961524147268
20
88.69999998617769
30
-4.39914771277472e-13
 70
     32
  0
VERTEX
  8
MY3DLAYER
10
521.2426406832845
20
87.45735930904544
30
-4.2299497238218464e-13
 70
     32
  0
VERTEX
  8
MY3DLAYER
10
520.0000000044286
20
86.50384757984976
30
-4.11715106451993e-13
 70
     32
  0
VERTEX
  8
MY3DLAYER
10
518.5529142857321
20
85.90444504631604
30
-4.0607517348689725e-13
 70
     32
  0
VERTEX
  8
MY3DLAYER
10
517.000000026187
20
85.69999999999973
30
-4.0043524052180143e-13
 70
     32
  0
VERTEX
  8
MY3DLAYER
10
515.4470857648573
20
85.90444503276072
30
-4.0607517348689725e-13
 70
     32
  0
VERTEX
  8
MY3DLAYER
10
514.0000000409287
20
86.50384755366315
30
-4.11715106451993e-13
 70
     32
  0
VERTEX
  8
MY3DLAYER
10
512.7573593537495
20
87.4573592720121
30
-4.2299497238218464e-13
 70
     32
  0
VERTEX
  8
MY3DLAYER
10
511.80384761146047
20
88.69999994082107
30
-4.39914771277472e-13
 70
     32
  0
VERTEX
  8
MY3DLAYER
10
511.204445062679
20
90.147085653202
30
-4.568345701727594e-13
 70
     32
  0
VERTEX
  8
MY3DLAYER
10
511.0000000000003
20
91.69999991059288
30
-4.737543690680468e-13
 70
     32
  0
VERTEX
  8
MY3DLAYER
10
511.0000000000003
20
191.99999999999974
30
-9.587886040662851e-14
 70
     32
  0
VERTEX
  8
MY3DLAYER
10
511.20096189396224
20
193.52645713256229
30
-9.587886040662851e-14
 70
     32
  0
VERTEX
  8
MY3DLAYER
10
511.7901523548798
20
194.9488887341303
30
-9.587886040662851e-14
 70
     32
  0
VERTEX
  8
MY3DLAYER
10
512.7274190265248
20
196.17035844173637
30
-9.587886040662851e-14
 70
     32
  0
VERTEX
  8
MY3DLAYER
10
513.948888734131
20
197.10762511338152
30
-9.587886040662851e-14
 70
     32
  0
VERTEX
  8
MY3DLAYER
10
515.371320335699
20
197.6968155742989
30
-9.587886040662851e-14
 70
     32
  0
VERTEX
  8
MY3DLAYER
10
516.8977774682616
20
197.89777746826084
30
-9.587886040662851e-14
 70
     32
  0
VERTEX
  8
MY3DLAYER
10
518.4242346008241
20
197.6968155742989
30
-9.587886040662851e-14
 70
     32
  0
VERTEX
  8
MY3DLAYER
10
519.8466662023922
20
197.10762511338152
30
-9.587886040662851e-14
 70
     32
  0
VERTEX
  8
MY3DLAYER
10
521.0681359099983
20
196.17035844173637
30
-9.587886040662851e-14
 70
     32
  0
VERTEX
  8
MY3DLAYER
10
522.0054025816432
20
194.9488887341303
30
-9.587886040662851e-14
 70
     32
  0
VERTEX
  8
MY3DLAYER
10
522.5945930425609
20
193.52645713256229
30
-9.587886040662851e-14
 70
     32
  0
VERTEX
  8
MY3DLAYER
10
522.7955549365229
20
191.99999999999974
30
-9.587886040662851e-14
 70
     32
  0
SEQEND
  0
POLYLINE
 8
Component#24
 66
     1
70
    8
 10
0.0
 20
 0.0
 30
0.0
  0
VERTEX
  8
MY3DLAYER
10
563.5000000000027
20
15.000000000000105
30
3.3839597790574766e-14
 70
     32
  0
VERTEX
  8
MY3DLAYER
10
563.5000000000027
20
125.7000000000002
30
3.3839597790574766e-14
 70
     32
  0
VERTEX
  8
MY3DLAYER
10
570.0000000000022
20
125.7000000000002
30
-1.2407852523210748e-13
 70
     32
  0
VERTEX
  8
MY3DLAYER
10
570.0000000000023
20
15.000000000000108
30
3.3839597790574766e-14
 70
     32
  0
VERTEX
  8
MY3DLAYER
10
563.5000000000027
20
15.000000000000105
30
3.3839597790574766e-14
 70
     32
  0
SEQEND
  0
POLYLINE
 8
Component#32
 66
     1
70
    8
 10
0.0
 20
 0.0
 30
0.0
  0
VERTEX
  8
MY3DLAYER
10
590.0000000000011
20
262.00000000000006
30
-1.4099832412739488e-13
 70
     32
  0
VERTEX
  8
MY3DLAYER
10
590.0000000000013
20
113.00000000000038
30
-3.947953075567056e-14
 70
     32
  0
VERTEX
  8
MY3DLAYER
10
579.0000000000013
20
97.0000000000004
30
-2.8199664825478976e-14
 70
     32
  0
VERTEX
  8
MY3DLAYER
10
579.0000000000014
20
43.00000000000005
30
1.6919798895287383e-14
 70
     32
  0
VERTEX
  8
MY3DLAYER
10
590.0000000000014
20
27.000000000000085
30
2.8199664825478976e-14
 70
     32
  0
VERTEX
  8
MY3DLAYER
10
590.0000000000014
20
2.7071678232459813e-13
30
3.3839597790574766e-14
 70
     32
  0
VERTEX
  8
MY3DLAYER
10
480.0000000000013
20
2.0660140265249531e-13
30
3.3839597790574766e-14
 70
     32
  0
VERTEX
  8
MY3DLAYER
10
480.0000000000011
20
262.0
30
3.3839597790574766e-14
 70
     32
  0
VERTEX
  8
MY3DLAYER
10
590.0000000000011
20
262.00000000000006
30
-1.4099832412739488e-13
 70
     32
  0
SEQEND
  0
POLYLINE
 8
Component#36
 66
     1
70
    8
 10
0.0
 20
 0.0
 30
0.0
  0
VERTEX
  8
MY3DLAYER
10
476.000000000001
20
242.99999999999977
30
-7.331912854624534e-14
 70
     32
  0
VERTEX
  8
MY3DLAYER
10
476.000000000001
20
261.9999999999998
30
-7.331912854624534e-14
 70
     32
  0
VERTEX
  8
MY3DLAYER
10
594.000000000001
20
261.9999999999999
30
-7.331912854624534e-14
 70
     32
  0
VERTEX
  8
MY3DLAYER
10
594.000000000001
20
242.99999999999986
30
-7.331912854624534e-14
 70
     32
  0
VERTEX
  8
MY3DLAYER
10
476.000000000001
20
242.99999999999977
30
-7.331912854624534e-14
 70
     32
  0
SEQEND
  0
POLYLINE
 8
Component#36
 66
     1
70
    8
 10
0.0
 20
 0.0
 30
0.0
  0
VERTEX
  8
MY3DLAYER
10
594.0000000000011
20
19.0000000000001
30
3.947953075567056e-14
 70
     32
  0
VERTEX
  8
MY3DLAYER
10
594.0000000000011
20
9.023892744153272e-14
30
3.947953075567056e-14
 70
     32
  0
VERTEX
  8
MY3DLAYER
10
476.00000000000114
20
2.1460611066004265e-14
30
3.947953075567056e-14
 70
     32
  0
VERTEX
  8
MY3DLAYER
10
476.00000000000114
20
19.000000000000032
30
3.947953075567056e-14
 70
     32
  0
VERTEX
  8
MY3DLAYER
10
594.0000000000011
20
19.0000000000001
30
3.947953075567056e-14
 70
     32
  0
SEQEND
  0
POLYLINE
 8
Component#36
 66
     1
70
    8
 10
0.0
 20
 0.0
 30
0.0
  0
VERTEX
  8
MY3DLAYER
10
476.00000000000114
20
121.69999999999996
30
-1.6919798895287383e-14
 70
     32
  0
VERTEX
  8
MY3DLAYER
10
476.00000000000114
20
140.30000000000007
30
-1.6919798895287383e-14
 70
     32
  0
VERTEX
  8
MY3DLAYER
10
594.000000000001
20
140.30000000000013
30
3.947953075567056e-14
 70
     32
  0
VERTEX
  8
MY3DLAYER
10
594.000000000001
20
121.70000000000003
30
-1.6919798895287383e-14
 70
     32
  0
VERTEX
  8
MY3DLAYER
10
476.00000000000114
20
121.69999999999996
30
-1.6919798895287383e-14
 70
     32
  0
SEQEND
  0
POLYLINE
 8
Component#42
 66
     1
70
    8
 10
0.0
 20
 0.0
 30
0.0
  0
VERTEX
  8
MY3DLAYER
10
563.3807403920125
20
253.40586665785867
30
-1.184385922670117e-13
 70
     32
  0
VERTEX
  8
MY3DLAYER
10
563.0310889132462
20
254.24999999999966
30
-1.184385922670117e-13
 70
     32
  0
VERTEX
  8
MY3DLAYER
10
562.4748737341537
20
254.97487373415268
30
-1.184385922670117e-13
 70
     32
  0
VERTEX
  8
MY3DLAYER
10
561.7500000000008
20
255.53108891324524
30
-1.184385922670117e-13
 70
     32
  0
VERTEX
  8
MY3DLAYER
10
560.9058666578595
20
255.8807403920113
30
-1.184385922670117e-13
 70
     32
  0
VERTEX
  8
MY3DLAYER
10
560.0000000000007
20
255.99999999999963
30
-1.184385922670117e-13
 70
     32
  0
VERTEX
  8
MY3DLAYER
10
559.094133342142
20
255.8807403920113
30
-1.184385922670117e-13
 70
     32
  0
VERTEX
  8
MY3DLAYER
10
558.2500000000007
20
255.53108891324524
30
-1.184385922670117e-13
 70
     32
  0
VERTEX
  8
MY3DLAYER
10
557.5251262658478
20
254.97487373415268
30
-1.184385922670117e-13
 70
     32
  0
VERTEX
  8
MY3DLAYER
10
556.9689110867552
20
254.24999999999966
30
-1.184385922670117e-13
 70
     32
  0
VERTEX
  8
MY3DLAYER
10
556.619259607989
20
253.40586665785867
30
-1.184385922670117e-13
 70
     32
  0
VERTEX
  8
MY3DLAYER
10
556.5000000000007
20
252.4999999999997
30
-1.184385922670117e-13
 70
     32
  0
VERTEX
  8
MY3DLAYER
10
556.619259607989
20
251.59413334214074
30
-1.184385922670117e-13
 70
     32
  0
VERTEX
  8
MY3DLAYER
10
556.9689110867552
20
250.74999999999974
30
-1.184385922670117e-13
 70
     32
  0
VERTEX
  8
MY3DLAYER
10
557.5251262658478
20
250.0251262658467
30
-1.184385922670117e-13
 70
     32
  0
VERTEX
  8
MY3DLAYER
10
558.2500000000007
20
249.46891108675416
30
-1.184385922670117e-13
 70
     32
  0
VERTEX
  8
MY3DLAYER
10
559.094133342142
20
249.1192596079881
30
-1.184385922670117e-13
 70
     32
  0
VERTEX
  8
MY3DLAYER
10
560.0000000000007
20
248.99999999999977
30
-1.184385922670117e-13
 70
     32
  0
VERTEX
  8
MY3DLAYER
10
560.9058666578595
20
249.1192596079881
30
-1.184385922670117e-13
 70
     32
  0
VERTEX
  8
MY3DLAYER
10
561.7500000000008
20
249.46891108675416
30
-1.184385922670117e-13
 70
     32
  0
VERTEX
  8
MY3DLAYER
10
562.4748737341537
20
250.0251262658467
30
-1.184385922670117e-13
 70
     32
  0
VERTEX
  8
MY3DLAYER
10
563.0310889132462
20
250.74999999999974
30
-1.184385922670117e-13
 70
     32
  0
VERTEX
  8
MY3DLAYER
10
563.3807403920125
20
251.59413334214074
30
-1.184385922670117e-13
 70
     32
  0
VERTEX
  8
MY3DLAYER
10
563.5000000000007
20
252.4999999999997
30
-1.184385922670117e-13
 70
     32
  0
VERTEX
  8
MY3DLAYER
10
563.3807403920125
20
253.40586665785867
30
-1.184385922670117e-13
 70
     32
  0
SEQEND
  0
POLYLINE
 8
Component#42
 66
     1
70
    8
 10
0.0
 20
 0.0
 30
0.0
  0
VERTEX
  8
MY3DLAYER
10
556.619259607989
20
130.09413334214094
30
-3.947953075567056e-14
 70
     32
  0
VERTEX
  8
MY3DLAYER
10
556.9689110867553
20
129.24999999999994
30
-3.947953075567056e-14
 70
     32
  0
VERTEX
  8
MY3DLAYER
10
557.5251262658479
20
128.5251262658469
30
-4.511946372076636e-14
 70
     32
  0
VERTEX
  8
MY3DLAYER
10
558.2500000000008
20
127.96891108675436
30
-4.511946372076636e-14
 70
     32
  0
VERTEX
  8
MY3DLAYER
10
559.094133342142
20
127.61925960798831
30
-4.511946372076636e-14
 70
     32
  0
VERTEX
  8
MY3DLAYER
10
560.0000000000008
20
127.49999999999997
30
-4.511946372076636e-14
 70
     32
  0
VERTEX
  8
MY3DLAYER
10
560.9058666578596
20
127.61925960798831
30
-4.511946372076636e-14
 70
     32
  0
VERTEX
  8
MY3DLAYER
10
561.7500000000008
20
127.96891108675436
30
-4.511946372076636e-14
 70
     32
  0
VERTEX
  8
MY3DLAYER
10
562.4748737341538
20
128.5251262658469
30
-4.511946372076636e-14
 70
     32
  0
VERTEX
  8
MY3DLAYER
10
563.0310889132463
20
129.24999999999994
30
-3.947953075567056e-14
 70
     32
  0
VERTEX
  8
MY3DLAYER
10
563.3807403920125
20
130.09413334214094
30
-3.947953075567056e-14
 70
     32
  0
VERTEX
  8
MY3DLAYER
10
563.5000000000008
20
130.9999999999999
30
-3.947953075567056e-14
 70
     32
  0
VERTEX
  8
MY3DLAYER
10
563.3807403920125
20
131.90586665785887
30
-3.947953075567056e-14
 70
     32
  0
VERTEX
  8
MY3DLAYER
10
563.0310889132463
20
132.74999999999986
30
-3.947953075567056e-14
 70
     32
  0
VERTEX
  8
MY3DLAYER
10
562.4748737341538
20
133.47487373415288
30
-3.3839597790574766e-14
 70
     32
  0
VERTEX
  8
MY3DLAYER
10
561.7500000000008
20
134.03108891324544
30
-3.3839597790574766e-14
 70
     32
  0
VERTEX
  8
MY3DLAYER
10
560.9058666578596
20
134.3807403920115
30
-3.3839597790574766e-14
 70
     32
  0
VERTEX
  8
MY3DLAYER
10
560.0000000000008
20
134.49999999999983
30
-3.3839597790574766e-14
 70
     32
  0
VERTEX
  8
MY3DLAYER
10
559.094133342142
20
134.3807403920115
30
-3.3839597790574766e-14
 70
     32
  0
VERTEX
  8
MY3DLAYER
10
558.2500000000008
20
134.03108891324544
30
-3.3839597790574766e-14
 70
     32
  0
VERTEX
  8
MY3DLAYER
10
557.5251262658479
20
133.47487373415288
30
-3.3839597790574766e-14
 70
     32
  0
VERTEX
  8
MY3DLAYER
10
556.9689110867553
20
132.74999999999986
30
-3.947953075567056e-14
 70
     32
  0
VERTEX
  8
MY3DLAYER
10
556.619259607989
20
131.90586665785887
30
-3.947953075567056e-14
 70
     32
  0
VERTEX
  8
MY3DLAYER
10
556.5000000000008
20
130.9999999999999
30
-3.947953075567056e-14
 70
     32
  0
VERTEX
  8
MY3DLAYER
10
556.619259607989
20
130.09413334214094
30
-3.947953075567056e-14
 70
     32
  0
SEQEND
  0
POLYLINE
 8
Component#42
 66
     1
70
    8
 10
0.0
 20
 0.0
 30
0.0
  0
VERTEX
  8
MY3DLAYER
10
556.6192596079891
20
8.594133342141133
30
-1.6919798895287383e-14
 70
     32
  0
VERTEX
  8
MY3DLAYER
10
556.9689110867554
20
7.749999999999948
30
-1.6919798895287383e-14
 70
     32
  0
VERTEX
  8
MY3DLAYER
10
557.5251262658479
20
7.025126265846922
30
-1.6919798895287383e-14
 70
     32
  0
VERTEX
  8
MY3DLAYER
10
558.2500000000008
20
6.468911086754372
30
-1.6919798895287383e-14
 70
     32
  0
VERTEX
  8
MY3DLAYER
10
559.094133342142
20
6.119259607988143
30
-1.6919798895287383e-14
 70
     32
  0
VERTEX
  8
MY3DLAYER
10
560.0000000000009
20
5.999999999999806
30
-1.6919798895287383e-14
 70
     32
  0
VERTEX
  8
MY3DLAYER
10
560.9058666578597
20
6.119259607988145
30
-1.6919798895287383e-14
 70
     32
  0
VERTEX
  8
MY3DLAYER
10
561.7500000000008
20
6.468911086754374
30
-1.6919798895287383e-14
 70
     32
  0
VERTEX
  8
MY3DLAYER
10
562.4748737341538
20
7.025126265846925
30
-1.6919798895287383e-14
 70
     32
  0
VERTEX
  8
MY3DLAYER
10
563.0310889132464
20
7.749999999999952
30
-1.6919798895287383e-14
 70
     32
  0
VERTEX
  8
MY3DLAYER
10
563.3807403920126
20
8.594133342141136
30
-1.6919798895287383e-14
 70
     32
  0
VERTEX
  8
MY3DLAYER
10
563.5000000000009
20
9.499999999999915
30
-1.6919798895287383e-14
 70
     32
  0
VERTEX
  8
MY3DLAYER
10
563.3807403920126
20
10.405866657858693
30
-1.6919798895287383e-14
 70
     32
  0
VERTEX
  8
MY3DLAYER
10
563.0310889132464
20
11.249999999999877
30
-1.6919798895287383e-14
 70
     32
  0
VERTEX
  8
MY3DLAYER
10
562.4748737341538
20
11.974873734152904
30
-1.6919798895287383e-14
 70
     32
  0
VERTEX
  8
MY3DLAYER
10
561.7500000000008
20
12.531088913245453
30
-1.6919798895287383e-14
 70
     32
  0
VERTEX
  8
MY3DLAYER
10
560.9058666578596
20
12.880740392011685
30
-1.6919798895287383e-14
 70
     32
  0
VERTEX
  8
MY3DLAYER
10
560.0000000000009
20
13.000000000000021
30
-1.6919798895287383e-14
 70
     32
  0
VERTEX
  8
MY3DLAYER
10
559.094133342142
20
12.880740392011681
30
-1.6919798895287383e-14
 70
     32
  0
VERTEX
  8
MY3DLAYER
10
558.2500000000008
20
12.531088913245451
30
-1.6919798895287383e-14
 70
     32
  0
VERTEX
  8
MY3DLAYER
10
557.5251262658479
20
11.974873734152903
30
-1.6919798895287383e-14
 70
     32
  0
VERTEX
  8
MY3DLAYER
10
556.9689110867554
20
11.249999999999876
30
-1.6919798895287383e-14
 70
     32
  0
VERTEX
  8
MY3DLAYER
10
556.6192596079891
20
10.40586665785869
30
-1.6919798895287383e-14
 70
     32
  0
VERTEX
  8
MY3DLAYER
10
556.5000000000009
20
9.499999999999911
30
-1.6919798895287383e-14
 70
     32
  0
VERTEX
  8
MY3DLAYER
10
556.6192596079891
20
8.594133342141133
30
-1.6919798895287383e-14
 70
     32
  0
SEQEND
  0
POLYLINE
 8
Component#42
 66
     1
70
    8
 10
0.0
 20
 0.0
 30
0.0
  0
VERTEX
  8
MY3DLAYER
10
513.3807403920125
20
10.405866657858665
30
1.6355805598777804e-13
 70
     32
  0
VERTEX
  8
MY3DLAYER
10
513.0310889132463
20
11.249999999999849
30
1.6355805598777804e-13
 70
     32
  0
VERTEX
  8
MY3DLAYER
10
512.4748737341538
20
11.974873734152876
30
1.6355805598777804e-13
 70
     32
  0
VERTEX
  8
MY3DLAYER
10
511.75000000000085
20
12.531088913245425
30
1.6355805598777804e-13
 70
     32
  0
VERTEX
  8
MY3DLAYER
10
510.90586665785963
20
12.880740392011653
30
1.6355805598777804e-13
 70
     32
  0
VERTEX
  8
MY3DLAYER
10
510.0000000000008
20
12.999999999999991
30
1.6355805598777804e-13
 70
     32
  0
VERTEX
  8
MY3DLAYER
10
509.094133342142
20
12.880740392011653
30
1.6355805598777804e-13
 70
     32
  0
VERTEX
  8
MY3DLAYER
10
508.2500000000008
20
12.531088913245423
30
1.6355805598777804e-13
 70
     32
  0
VERTEX
  8
MY3DLAYER
10
507.52512626584786
20
11.974873734152872
30
1.6355805598777804e-13
 70
     32
  0
VERTEX
  8
MY3DLAYER
10
506.9689110867552
20
11.249999999999844
30
1.6355805598777804e-13
 70
     32
  0
VERTEX
  8
MY3DLAYER
10
506.619259607989
20
10.40586665785866
30
1.6355805598777804e-13
 70
     32
  0
VERTEX
  8
MY3DLAYER
10
506.50000000000085
20
9.499999999999881
30
1.6355805598777804e-13
 70
     32
  0
VERTEX
  8
MY3DLAYER
10
506.619259607989
20
8.594133342141102
30
1.6355805598777804e-13
 70
     32
  0
VERTEX
  8
MY3DLAYER
10
506.9689110867552
20
7.749999999999919
30
1.6355805598777804e-13
 70
     32
  0
VERTEX
  8
MY3DLAYER
10
507.52512626584786
20
7.025126265846892
30
1.6355805598777804e-13
 70
     32
  0
VERTEX
  8
MY3DLAYER
10
508.2500000000008
20
6.468911086754343
30
1.6355805598777804e-13
 70
     32
  0
VERTEX
  8
MY3DLAYER
10
509.094133342142
20
6.119259607988114
30
1.6355805598777804e-13
 70
     32
  0
VERTEX
  8
MY3DLAYER
10
510.0000000000008
20
5.999999999999777
30
1.6355805598777804e-13
 70
     32
  0
VERTEX
  8
MY3DLAYER
10
510.90586665785963
20
6.119259607988115
30
1.6355805598777804e-13
 70
     32
  0
VERTEX
  8
MY3DLAYER
10
511.75000000000085
20
6.468911086754345
30
1.6355805598777804e-13
 70
     32
  0
VERTEX
  8
MY3DLAYER
10
512.4748737341538
20
7.025126265846895
30
1.6355805598777804e-13
 70
     32
  0
VERTEX
  8
MY3DLAYER
10
513.0310889132463
20
7.749999999999923
30
1.6355805598777804e-13
 70
     32
  0
VERTEX
  8
MY3DLAYER
10
513.3807403920125
20
8.594133342141106
30
1.6355805598777804e-13
 70
     32
  0
VERTEX
  8
MY3DLAYER
10
513.5000000000009
20
9.499999999999886
30
1.6355805598777804e-13
 70
     32
  0
VERTEX
  8
MY3DLAYER
10
513.3807403920125
20
10.405866657858665
30
1.6355805598777804e-13
 70
     32
  0
SEQEND
  0
POLYLINE
 8
Component#42
 66
     1
70
    8
 10
0.0
 20
 0.0
 30
0.0
  0
VERTEX
  8
MY3DLAYER
10
511.7500000000006
20
249.4689110867541
30
1.071587263368201e-13
 70
     32
  0
VERTEX
  8
MY3DLAYER
10
512.4748737341536
20
250.02512626584667
30
1.071587263368201e-13
 70
     32
  0
VERTEX
  8
MY3DLAYER
10
513.0310889132462
20
250.7499999999997
30
1.071587263368201e-13
 70
     32
  0
VERTEX
  8
MY3DLAYER
10
513.3807403920125
20
251.59413334214068
30
1.071587263368201e-13
 70
     32
  0
VERTEX
  8
MY3DLAYER
10
513.5000000000007
20
252.49999999999966
30
1.071587263368201e-13
 70
     32
  0
VERTEX
  8
MY3DLAYER
10
513.3807403920125
20
253.4058666578586
30
1.071587263368201e-13
 70
     32
  0
VERTEX
  8
MY3DLAYER
10
513.0310889132462
20
254.2499999999996
30
1.071587263368201e-13
 70
     32
  0
VERTEX
  8
MY3DLAYER
10
512.4748737341536
20
254.97487373415265
30
1.071587263368201e-13
 70
     32
  0
VERTEX
  8
MY3DLAYER
10
511.7500000000006
20
255.53108891324518
30
1.071587263368201e-13
 70
     32
  0
VERTEX
  8
MY3DLAYER
10
510.90586665785946
20
255.88074039201123
30
1.071587263368201e-13
 70
     32
  0
VERTEX
  8
MY3DLAYER
10
510.0000000000007
20
255.99999999999957
30
1.071587263368201e-13
 70
     32
  0
VERTEX
  8
MY3DLAYER
10
509.09413334214184
20
255.88074039201123
30
1.071587263368201e-13
 70
     32
  0
VERTEX
  8
MY3DLAYER
10
508.2500000000006
20
255.53108891324518
30
1.071587263368201e-13
 70
     32
  0
VERTEX
  8
MY3DLAYER
10
507.5251262658477
20
254.97487373415265
30
1.071587263368201e-13
 70
     32
  0
VERTEX
  8
MY3DLAYER
10
506.96891108675516
20
254.2499999999996
30
1.071587263368201e-13
 70
     32
  0
VERTEX
  8
MY3DLAYER
10
506.6192596079889
20
253.4058666578586
30
1.071587263368201e-13
 70
     32
  0
VERTEX
  8
MY3DLAYER
10
506.5000000000007
20
252.49999999999966
30
1.071587263368201e-13
 70
     32
  0
VERTEX
  8
MY3DLAYER
10
506.6192596079889
20
251.59413334214068
30
1.071587263368201e-13
 70
     32
  0
VERTEX
  8
MY3DLAYER
10
506.96891108675516
20
250.7499999999997
30
1.071587263368201e-13
 70
     32
  0
VERTEX
  8
MY3DLAYER
10
507.5251262658477
20
250.02512626584667
30
1.071587263368201e-13
 70
     32
  0
VERTEX
  8
MY3DLAYER
10
508.2500000000006
20
249.4689110867541
30
1.071587263368201e-13
 70
     32
  0
VERTEX
  8
MY3DLAYER
10
509.09413334214184
20
249.11925960798806
30
1.071587263368201e-13
 70
     32
  0
VERTEX
  8
MY3DLAYER
10
510.0000000000007
20
248.99999999999972
30
1.071587263368201e-13
 70
     32
  0
VERTEX
  8
MY3DLAYER
10
510.90586665785946
20
249.11925960798806
30
1.071587263368201e-13
 70
     32
  0
VERTEX
  8
MY3DLAYER
10
511.7500000000006
20
249.4689110867541
30
1.071587263368201e-13
 70
     32
  0
SEQEND
 0
ENDSEC
 0
EOF
