 0
SECTION
 2
ENTITIES
  0
POLYLINE
 8
Component#20
 66
     1
70
    8
 10
0.0
 20
 0.0
 30
0.0
  0
VERTEX
  8
MY3DLAYER
10
15.999999999999362
20
192.2000000000037
30
1.2213629666134784e-14
 70
     32
  0
VERTEX
  8
MY3DLAYER
10
15.99999999999934
20
210.20000000000303
30
5.639932965095795e-15
 70
     32
  0
VERTEX
  8
MY3DLAYER
10
113.99999999999983
20
210.20000000000317
30
7.598527867520005e-14
 70
     32
  0
VERTEX
  8
MY3DLAYER
10
113.99999999999986
20
192.20000000000383
30
7.127910944604745e-14
 70
     32
  0
VERTEX
  8
MY3DLAYER
10
15.999999999999362
20
192.2000000000037
30
1.2213629666134784e-14
 70
     32
  0
SEQEND
  0
POLYLINE
 8
Component#22
 66
     1
70
    8
 10
0.0
 20
 0.0
 30
0.0
  0
VERTEX
  8
MY3DLAYER
10
19.999999999998412
20
206.20000000000314
30
2.3334382255721593e-13
 70
     32
  0
VERTEX
  8
MY3DLAYER
10
19.999999999998295
20
305.99999999999994
30
4.39914771277472e-13
 70
     32
  0
VERTEX
  8
MY3DLAYER
10
26.499999999997808
20
305.99999999999994
30
4.445805340031418e-13
 70
     32
  0
VERTEX
  8
MY3DLAYER
10
26.499999999997925
20
206.20000000000314
30
4.1848744016595117e-13
 70
     32
  0
VERTEX
  8
MY3DLAYER
10
19.999999999998412
20
206.20000000000314
30
2.3334382255721593e-13
 70
     32
  0
SEQEND
  0
POLYLINE
 8
Component#25
 66
     1
70
    8
 10
0.0
 20
 0.0
 30
0.0
  0
VERTEX
  8
MY3DLAYER
10
-3.6095570976613087e-13
20
301.99999999999994
30
0.0
 70
     32
  0
VERTEX
  8
MY3DLAYER
10
109.9999999999997
20
302.00000000000006
30
7.895906151134116e-14
 70
     32
  0
VERTEX
  8
MY3DLAYER
10
110.00000000000007
20
1.3535839116229907e-13
30
1.7031506943721643e-28
 70
     32
  0
VERTEX
  8
MY3DLAYER
10
-5.218048215738652e-16
20
0.0
30
1.3024093545198904e-28
 70
     32
  0
VERTEX
  8
MY3DLAYER
10
-3.6095570976613087e-13
20
301.99999999999994
30
0.0
 70
     32
  0
SEQEND
  0
POLYLINE
 8
Component#25
 66
     1
70
    8
 10
0.0
 20
 0.0
 30
0.0
  0
VERTEX
  8
MY3DLAYER
10
29.99999999999986
20
147.20000000000374
30
8.258002750410447e-14
 70
     32
  0
VERTEX
  8
MY3DLAYER
10
29.999999999999957
20
65.00000000000006
30
2.72489235670644e-14
 70
     32
  0
VERTEX
  8
MY3DLAYER
10
30.032116151420873
20
64.0189530615479
30
2.7015478355250828e-14
 70
     32
  0
VERTEX
  8
MY3DLAYER
10
30.128327079392747
20
63.04210711669931
30
2.6829139358501686e-14
 70
     32
  0
VERTEX
  8
MY3DLAYER
10
30.288220793951446
20
62.07364516975813
30
2.669070450900831e-14
 70
     32
  0
VERTEX
  8
MY3DLAYER
10
30.511112605663953
20
61.11771432346223
30
2.6600766606049196e-14
 70
     32
  0
VERTEX
  8
MY3DLAYER
10
30.79604805757331
20
60.178408020452636
30
2.6559710777532157e-14
 70
     32
  0
VERTEX
  8
MY3DLAYER
10
31.141807012330595
20
59.25974851452373
30
2.6567712830818103e-14
 70
     32
  0
VERTEX
  8
MY3DLAYER
10
31.546908877009653
20
58.36566964671501
30
2.6624738499886306e-14
 70
     32
  0
VERTEX
  8
MY3DLAYER
10
32.00961894323335
20
57.50000000000005
30
2.6730543592066997e-14
 70
     32
  0
VERTEX
  8
MY3DLAYER
10
32.52795581546172
20
56.66644650470601
30
2.6884675033712033e-14
 70
     32
  0
VERTEX
  8
MY3DLAYER
10
33.09969989563135
20
55.86857856486925
30
3.272640577542139e-14
 70
     32
  0
VERTEX
  8
MY3DLAYER
10
33.72240288781525
20
55.109812773499044
30
3.29750057579435e-14
 70
     32
  0
VERTEX
  8
MY3DLAYER
10
34.3933982822017
20
54.393398282201865
30
3.3269343403083163e-14
 70
     32
  0
VERTEX
  8
MY3DLAYER
10
35.10981277349888
20
53.72240288781541
30
3.360815831185638e-14
 70
     32
  0
VERTEX
  8
MY3DLAYER
10
35.86857856486918
20
53.09969989563152
30
3.398999962680804e-14
 70
     32
  0
VERTEX
  8
MY3DLAYER
10
36.66644650470585
20
52.527955815461894
30
3.441323224480598e-14
 70
     32
  0
VERTEX
  8
MY3DLAYER
10
37.49999999999989
20
52.00961894323342
30
4.051597678390007e-14
 70
     32
  0
VERTEX
  8
MY3DLAYER
10
38.36566964671494
20
51.54690887700973
30
4.101638548368674e-14
 70
     32
  0
VERTEX
  8
MY3DLAYER
10
39.25974851452366
20
51.141807012330766
30
4.155224848238506e-14
 70
     32
  0
VERTEX
  8
MY3DLAYER
10
40.17840802045248
20
50.79604805757348
30
4.212127113236733e-14
 70
     32
  0
VERTEX
  8
MY3DLAYER
10
41.11771432346216
20
50.51111260566404
30
4.836094975638443e-14
 70
     32
  0
VERTEX
  8
MY3DLAYER
10
42.07364516975806
20
50.288220793951616
30
4.898885022125846e-14
 70
     32
  0
VERTEX
  8
MY3DLAYER
10
43.04210711669915
20
50.12832707939292
30
4.964221672589757e-14
 70
     32
  0
VERTEX
  8
MY3DLAYER
10
44.01895306154774
20
50.03211615142096
30
5.03182514546223e-14
 70
     32
  0
VERTEX
  8
MY3DLAYER
10
44.99999999999999
20
50.00000000000004
30
5.665399248803346e-14
 70
     32
  0
VERTEX
  8
MY3DLAYER
10
64.99999999999996
20
50.00000000000009
30
6.537025252499966e-14
 70
     32
  0
VERTEX
  8
MY3DLAYER
10
65.98104693845221
20
50.03211615142101
30
6.608285437593455e-14
 70
     32
  0
VERTEX
  8
MY3DLAYER
10
66.9578928833008
20
50.12832707939297
30
6.680919853896262e-14
 70
     32
  0
VERTEX
  8
MY3DLAYER
10
67.92635483024189
20
50.288220793951666
30
6.754617469686741e-14
 70
     32
  0
VERTEX
  8
MY3DLAYER
10
68.88228567653779
20
50.51111260566408
30
6.829062700459823e-14
 70
     32
  0
VERTEX
  8
MY3DLAYER
10
69.82159197954748
20
50.79604805757352
30
6.903936760308296e-14
 70
     32
  0
VERTEX
  8
MY3DLAYER
10
70.74025148547629
20
51.141807012330815
30
6.978919027013e-14
 70
     32
  0
VERTEX
  8
MY3DLAYER
10
71.634330353285
20
51.54690887700978
30
7.053688414996438e-14
 70
     32
  0
VERTEX
  8
MY3DLAYER
10
72.50000000000004
20
52.00961894323347
30
7.127924750260452e-14
 70
     32
  0
VERTEX
  8
MY3DLAYER
10
73.33355349529408
20
52.52795581546194
30
6.637316844910888e-14
 70
     32
  0
VERTEX
  8
MY3DLAYER
10
74.13142143513076
20
53.09969989563156
30
6.709537044455623e-14
 70
     32
  0
VERTEX
  8
MY3DLAYER
10
74.89018722650106
20
53.722402887815456
30
6.780282794403202e-14
 70
     32
  0
VERTEX
  8
MY3DLAYER
10
75.60660171779823
20
54.393398282201915
30
6.849251150591243e-14
 70
     32
  0
VERTEX
  8
MY3DLAYER
10
76.2775971121847
20
55.10981277349909
30
6.916146779930343e-14
 70
     32
  0
VERTEX
  8
MY3DLAYER
10
76.90030010436858
20
55.868578564869296
30
6.416689928556088e-14
 70
     32
  0
VERTEX
  8
MY3DLAYER
10
77.4720441845382
20
56.66644650470606
30
6.478590834521747e-14
 70
     32
  0
VERTEX
  8
MY3DLAYER
10
77.99038105676658
20
57.5000000000001
30
6.537591132135201e-14
 70
     32
  0
VERTEX
  8
MY3DLAYER
10
78.45309112299029
20
58.365669646715055
30
6.029444876554595e-14
 70
     32
  0
VERTEX
  8
MY3DLAYER
10
78.85819298766933
20
59.25974851452377
30
6.081899515196052e-14
 70
     32
  0
VERTEX
  8
MY3DLAYER
10
79.20395194242663
20
60.178408020452686
30
6.130737132734325e-14
 70
     32
  0
VERTEX
  8
MY3DLAYER
10
79.48888739433596
20
61.11771432346227
30
5.611755302483854e-14
 70
     32
  0
VERTEX
  8
MY3DLAYER
10
79.71177920604848
20
62.07364516975817
30
5.6527478714550056e-14
 70
     32
  0
VERTEX
  8
MY3DLAYER
10
79.87167292060717
20
63.042107116699356
30
5.689546006664557e-14
 70
     32
  0
VERTEX
  8
MY3DLAYER
10
79.96788384857904
20
64.01895306154795
30
5.1579988363386077e-14
 70
     32
  0
VERTEX
  8
MY3DLAYER
10
79.99999999999996
20
65.0000000000001
30
5.185954014202787e-14
 70
     32
  0
VERTEX
  8
MY3DLAYER
10
79.99999999999986
20
147.2000000000038
30
1.1847051000925953e-13
 70
     32
  0
VERTEX
  8
MY3DLAYER
10
79.96788384857894
20
148.18104693845595
30
1.187039552210731e-13
 70
     32
  0
VERTEX
  8
MY3DLAYER
10
79.87167292060707
20
149.15789288330453
30
1.1889029421782224e-13
 70
     32
  0
VERTEX
  8
MY3DLAYER
10
79.71177920604836
20
150.12635483024573
30
1.1902872906731563e-13
 70
     32
  0
VERTEX
  8
MY3DLAYER
10
79.48888739433586
20
151.08228567654163
30
1.1347873400517893e-13
 70
     32
  0
VERTEX
  8
MY3DLAYER
10
79.20395194242651
20
152.0215919795512
30
1.1351978983369597e-13
 70
     32
  0
VERTEX
  8
MY3DLAYER
10
78.85819298766921
20
152.94025148548013
30
1.1351178778041003e-13
 70
     32
  0
VERTEX
  8
MY3DLAYER
10
78.45309112299017
20
153.83433035328883
30
1.1345476211134183e-13
 70
     32
  0
VERTEX
  8
MY3DLAYER
10
77.99038105676648
20
154.7000000000038
30
1.1334895701916114e-13
 70
     32
  0
VERTEX
  8
MY3DLAYER
10
77.47204418453809
20
155.53355349529784
30
1.1319482557751611e-13
 70
     32
  0
VERTEX
  8
MY3DLAYER
10
76.90030010436845
20
156.3314214351346
30
1.1299302780090254e-13
 70
     32
  0
VERTEX
  8
MY3DLAYER
10
76.27759711218457
20
157.0901872265048
30
1.1274442781838043e-13
 70
     32
  0
VERTEX
  8
MY3DLAYER
10
75.60660171779811
20
157.80660171780198
30
1.1245009017324076e-13
 70
     32
  0
VERTEX
  8
MY3DLAYER
10
74.89018722650093
20
158.47759711218845
30
1.0647134229937176e-13
 70
     32
  0
VERTEX
  8
MY3DLAYER
10
74.13142143513063
20
159.10030010437234
30
1.060895009844201e-13
 70
     32
  0
VERTEX
  8
MY3DLAYER
10
73.33355349529397
20
159.67204418454196
30
1.0566626836642218e-13
 70
     32
  0
VERTEX
  8
MY3DLAYER
10
72.49999999999993
20
160.19038105677043
30
1.0520345679242386e-13
 70
     32
  0
VERTEX
  8
MY3DLAYER
10
71.63433035328488
20
160.6530911229941
30
1.047030480926372e-13
 70
     32
  0
VERTEX
  8
MY3DLAYER
10
70.74025148547616
20
161.0581929876731
30
1.0416718509393889e-13
 70
     32
  0
VERTEX
  8
MY3DLAYER
10
69.82159197954734
20
161.40395194243038
30
1.0359816244395659e-13
 70
     32
  0
VERTEX
  8
MY3DLAYER
10
68.88228567653765
20
161.68888739433982
30
1.0299841678503529e-13
 70
     32
  0
VERTEX
  8
MY3DLAYER
10
67.92635483024176
20
161.91177920605224
30
1.0237051632016127e-13
 70
     32
  0
VERTEX
  8
MY3DLAYER
10
66.95789288330066
20
162.07167292061092
30
1.0171714981552215e-13
 70
     32
  0
VERTEX
  8
MY3DLAYER
10
65.98104693845208
20
162.16788384858287
30
1.0104111508679742e-13
 70
     32
  0
VERTEX
  8
MY3DLAYER
10
64.99999999999983
20
162.2000000000038
30
1.0034530701848205e-13
 70
     32
  0
VERTEX
  8
MY3DLAYER
10
44.99999999999986
20
162.20000000000377
30
1.1982871180699483e-13
 70
     32
  0
VERTEX
  8
MY3DLAYER
10
44.018953061547606
20
162.16788384858285
30
1.1911610995605992e-13
 70
     32
  0
VERTEX
  8
MY3DLAYER
10
43.04210711669902
20
162.0716729206109
30
1.1274983282793609e-13
 70
     32
  0
VERTEX
  8
MY3DLAYER
10
42.073645169757924
20
161.9117792060522
30
1.1201285667003129e-13
 70
     32
  0
VERTEX
  8
MY3DLAYER
10
41.11771432346203
20
161.68888739433976
30
1.1126840436230049e-13
 70
     32
  0
VERTEX
  8
MY3DLAYER
10
40.178408020452345
20
161.40395194243033
30
1.1051966376381573e-13
 70
     32
  0
VERTEX
  8
MY3DLAYER
10
39.25974851452353
20
161.05819298767304
30
1.097698410967687e-13
 70
     32
  0
VERTEX
  8
MY3DLAYER
10
38.365669646714814
20
160.65309112299408
30
1.0338221425183853e-13
 70
     32
  0
VERTEX
  8
MY3DLAYER
10
37.499999999999766
20
160.19038105677038
30
1.0263985089919838e-13
 70
     32
  0
VERTEX
  8
MY3DLAYER
10
36.666446504705725
20
159.6720441845419
30
1.0190599698759822e-13
 70
     32
  0
VERTEX
  8
MY3DLAYER
10
35.868578564869054
20
159.10030010437228
30
1.0118379499215088e-13
 70
     32
  0
VERTEX
  8
MY3DLAYER
10
35.10981277349875
20
158.4775971121884
30
1.004763374926751e-13
 70
     32
  0
VERTEX
  8
MY3DLAYER
10
34.39339828220158
20
157.80660171780195
30
9.414672096569889e-14
 70
     32
  0
VERTEX
  8
MY3DLAYER
10
33.72240288781513
20
157.09018722650475
30
9.347776467230789e-14
 70
     32
  0
VERTEX
  8
MY3DLAYER
10
33.09969989563123
20
156.33142143513456
30
9.283240022095464e-14
 70
     32
  0
VERTEX
  8
MY3DLAYER
10
32.52795581546161
20
155.5335534952978
30
9.221339116129806e-14
 70
     32
  0
VERTEX
  8
MY3DLAYER
10
32.00961894323323
20
154.70000000000377
30
9.162338818516352e-14
 70
     32
  0
VERTEX
  8
MY3DLAYER
10
31.546908877009535
20
153.8343303532888
30
9.106491777587377e-14
 70
     32
  0
VERTEX
  8
MY3DLAYER
10
31.14180701233049
20
152.94025148548008
30
9.05403713894592e-14
 70
     32
  0
VERTEX
  8
MY3DLAYER
10
30.796048057573202
20
152.02159197955118
30
8.441206224898068e-14
 70
     32
  0
VERTEX
  8
MY3DLAYER
10
30.511112605663847
20
151.08228567654157
30
8.396194758638959e-14
 70
     32
  0
VERTEX
  8
MY3DLAYER
10
30.28822079395134
20
150.12635483024567
30
8.355202189667808e-14
 70
     32
  0
VERTEX
  8
MY3DLAYER
10
30.12832707939264
20
149.1578928833045
30
8.318404054458256e-14
 70
     32
  0
VERTEX
  8
MY3DLAYER
10
30.032116151420777
20
148.18104693845592
30
8.285957928274626e-14
 70
     32
  0
VERTEX
  8
MY3DLAYER
10
29.99999999999986
20
147.20000000000374
30
8.258002750410447e-14
 70
     32
  0
SEQEND
  0
POLYLINE
 8
Component#37
 66
     1
70
    8
 10
0.0
 20
 0.0
 30
0.0
  0
VERTEX
  8
MY3DLAYER
10
33.380740392011674
20
200.2941333421445
30
6.018646072125566e-14
 70
     32
  0
VERTEX
  8
MY3DLAYER
10
33.49999999999992
20
201.20000000000337
30
6.050890874045554e-14
 70
     32
  0
VERTEX
  8
MY3DLAYER
10
33.38074039201167
20
202.10586665786224
30
6.066014536469244e-14
 70
     32
  0
VERTEX
  8
MY3DLAYER
10
33.03108891324544
20
202.95000000000334
30
6.062986406795489e-14
 70
     32
  0
VERTEX
  8
MY3DLAYER
10
32.474873734152844
20
203.67487373415628
30
6.042012847057349e-14
 70
     32
  0
VERTEX
  8
MY3DLAYER
10
31.749999999999908
20
204.23108891324893
30
6.004523170690523e-14
 70
     32
  0
VERTEX
  8
MY3DLAYER
10
30.905866657858724
20
204.58074039201514
30
6.51706553369437e-14
 70
     32
  0
VERTEX
  8
MY3DLAYER
10
29.9999999999999
20
204.7000000000034
30
6.455159639141461e-14
 70
     32
  0
VERTEX
  8
MY3DLAYER
10
29.094133342141077
20
204.58074039201514
30
6.387017567950828e-14
 70
     32
  0
VERTEX
  8
MY3DLAYER
10
28.249999999999893
20
204.23108891324893
30
6.317283089664015e-14
 70
     32
  0
VERTEX
  8
MY3DLAYER
10
27.525126265846954
20
203.67487373415628
30
6.814701790244172e-14
 70
     32
  0
VERTEX
  8
MY3DLAYER
10
26.96891108675436
20
202.95000000000343
30
6.755824025365018e-14
 70
     32
  0
VERTEX
  8
MY3DLAYER
10
26.619259607988138
20
202.10586665786224
30
6.708655513912524e-14
 70
     32
  0
VERTEX
  8
MY3DLAYER
10
26.49999999999989
20
201.20000000000337
30
6.676410711992538e-14
 70
     32
  0
VERTEX
  8
MY3DLAYER
10
26.619259607988138
20
200.2941333421445
30
6.661287049568848e-14
 70
     32
  0
VERTEX
  8
MY3DLAYER
10
26.968911086754364
20
199.4500000000034
30
6.664315179242601e-14
 70
     32
  0
VERTEX
  8
MY3DLAYER
10
27.52512626584696
20
198.72512626585046
30
6.685288738980742e-14
 70
     32
  0
VERTEX
  8
MY3DLAYER
10
28.249999999999897
20
198.16891108675784
30
6.722778415347569e-14
 70
     32
  0
VERTEX
  8
MY3DLAYER
10
29.09413334214108
20
197.8192596079916
30
6.21023605234372e-14
 70
     32
  0
VERTEX
  8
MY3DLAYER
10
29.99999999999991
20
197.70000000000337
30
6.27214194689663e-14
 70
     32
  0
VERTEX
  8
MY3DLAYER
10
30.905866657858734
20
197.8192596079916
30
6.340284018087262e-14
 70
     32
  0
VERTEX
  8
MY3DLAYER
10
31.749999999999915
20
198.16891108675784
30
6.410018496374076e-14
 70
     32
  0
VERTEX
  8
MY3DLAYER
10
32.47487373415285
20
198.72512626585046
30
5.912599795793918e-14
 70
     32
  0
VERTEX
  8
MY3DLAYER
10
33.03108891324545
20
199.4500000000033
30
5.971477560673074e-14
 70
     32
  0
VERTEX
  8
MY3DLAYER
10
33.380740392011674
20
200.2941333421445
30
6.018646072125566e-14
 70
     32
  0
SEQEND
  0
POLYLINE
 8
Component#37
 66
     1
70
    8
 10
0.0
 20
 0.0
 30
0.0
  0
VERTEX
  8
MY3DLAYER
10
82.4748737341529
20
203.6748737341563
30
3.9911281324770633e-14
 70
     32
  0
VERTEX
  8
MY3DLAYER
10
81.74999999999996
20
204.23108891324895
30
3.9536384561102356e-14
 70
     32
  0
VERTEX
  8
MY3DLAYER
10
80.90586665785877
20
204.5807403920152
30
4.466180819114083e-14
 70
     32
  0
VERTEX
  8
MY3DLAYER
10
79.99999999999994
20
204.70000000000343
30
4.4042749245611746e-14
 70
     32
  0
VERTEX
  8
MY3DLAYER
10
79.09413334214112
20
204.5807403920152
30
4.336132853370542e-14
 70
     32
  0
VERTEX
  8
MY3DLAYER
10
78.24999999999993
20
204.23108891324895
30
4.2663983750837286e-14
 70
     32
  0
VERTEX
  8
MY3DLAYER
10
77.52512626584699
20
203.6748737341563
30
4.763817075663886e-14
 70
     32
  0
VERTEX
  8
MY3DLAYER
10
76.9689110867544
20
202.95000000000348
30
4.70493931078473e-14
 70
     32
  0
VERTEX
  8
MY3DLAYER
10
76.61925960798817
20
202.10586665786232
30
4.6577707993322385e-14
 70
     32
  0
VERTEX
  8
MY3DLAYER
10
76.49999999999993
20
201.20000000000346
30
4.625525997412252e-14
 70
     32
  0
VERTEX
  8
MY3DLAYER
10
76.61925960798817
20
200.29413334214456
30
4.610402334988562e-14
 70
     32
  0
VERTEX
  8
MY3DLAYER
10
76.9689110867544
20
199.45000000000348
30
4.6134304646623146e-14
 70
     32
  0
VERTEX
  8
MY3DLAYER
10
77.525126265847
20
198.72512626585055
30
4.6344040244004554e-14
 70
     32
  0
VERTEX
  8
MY3DLAYER
10
78.24999999999994
20
198.1689110867579
30
4.671893700767282e-14
 70
     32
  0
VERTEX
  8
MY3DLAYER
10
79.09413334214113
20
197.81925960799168
30
4.159351337763434e-14
 70
     32
  0
VERTEX
  8
MY3DLAYER
10
79.99999999999996
20
197.70000000000343
30
4.2212572323163435e-14
 70
     32
  0
VERTEX
  8
MY3DLAYER
10
80.90586665785878
20
197.81925960799168
30
4.289399303506976e-14
 70
     32
  0
VERTEX
  8
MY3DLAYER
10
81.74999999999996
20
198.1689110867579
30
4.3591337817937895e-14
 70
     32
  0
VERTEX
  8
MY3DLAYER
10
82.4748737341529
20
198.72512626585055
30
3.861715081213632e-14
 70
     32
  0
VERTEX
  8
MY3DLAYER
10
83.0310889132455
20
199.4500000000034
30
3.920592846092788e-14
 70
     32
  0
VERTEX
  8
MY3DLAYER
10
83.38074039201172
20
200.29413334214456
30
3.96776135754528e-14
 70
     32
  0
VERTEX
  8
MY3DLAYER
10
83.49999999999996
20
201.20000000000346
30
4.0000061594652654e-14
 70
     32
  0
VERTEX
  8
MY3DLAYER
10
83.38074039201172
20
202.10586665786232
30
4.015129821888957e-14
 70
     32
  0
VERTEX
  8
MY3DLAYER
10
83.03108891324548
20
202.9500000000034
30
4.0121016922152035e-14
 70
     32
  0
VERTEX
  8
MY3DLAYER
10
82.4748737341529
20
203.6748737341563
30
3.9911281324770633e-14
 70
     32
  0
SEQEND
 0
ENDSEC
 0
EOF
