 0
SECTION
 2
ENTITIES
  0
POLYLINE
 8
hole
 66
     1
70
    8
 10
0.0
 20
 0.0
 30
0.0
  0
VERTEX
  8
MY3DLAYER
10
663.3458590345344
20
41.97718570329699
30
3.327560449406519e-13
 70
     32
  0
VERTEX
  8
MY3DLAYER
10
662.0000000000013
20
41.800000000000146
30
3.327560449406519e-13
 70
     32
  0
VERTEX
  8
MY3DLAYER
10
660.6541409654681
20
41.97718570329699
30
3.327560449406519e-13
 70
     32
  0
VERTEX
  8
MY3DLAYER
10
659.4000000000011
20
42.49666790032106
30
3.327560449406519e-13
 70
     32
  0
VERTEX
  8
MY3DLAYER
10
658.3230447378313
20
43.32304473783008
30
3.327560449406519e-13
 70
     32
  0
VERTEX
  8
MY3DLAYER
10
657.4966679003222
20
44.4000000000001
30
3.327560449406519e-13
 70
     32
  0
VERTEX
  8
MY3DLAYER
10
656.9771857032982
20
45.654140965466965
30
3.327560449406519e-13
 70
     32
  0
VERTEX
  8
MY3DLAYER
10
656.8000000000013
20
47.00000000000005
30
3.327560449406519e-13
 70
     32
  0
VERTEX
  8
MY3DLAYER
10
656.9771857032982
20
48.345859034533134
30
3.327560449406519e-13
 70
     32
  0
VERTEX
  8
MY3DLAYER
10
657.4966679003222
20
49.6
30
3.327560449406519e-13
 70
     32
  0
VERTEX
  8
MY3DLAYER
10
658.3230447378313
20
50.67695526217002
30
3.327560449406519e-13
 70
     32
  0
VERTEX
  8
MY3DLAYER
10
659.4000000000015
20
51.50333209967904
30
3.327560449406519e-13
 70
     32
  0
VERTEX
  8
MY3DLAYER
10
660.6541409654681
20
52.0228142967031
30
3.327560449406519e-13
 70
     32
  0
VERTEX
  8
MY3DLAYER
10
662.0000000000013
20
52.199999999999946
30
3.327560449406519e-13
 70
     32
  0
VERTEX
  8
MY3DLAYER
10
663.3458590345344
20
52.0228142967031
30
3.327560449406519e-13
 70
     32
  0
VERTEX
  8
MY3DLAYER
10
664.6000000000014
20
51.50333209967904
30
3.327560449406519e-13
 70
     32
  0
VERTEX
  8
MY3DLAYER
10
665.6769552621711
20
50.67695526217002
30
3.327560449406519e-13
 70
     32
  0
VERTEX
  8
MY3DLAYER
10
666.5033320996803
20
49.6
30
3.327560449406519e-13
 70
     32
  0
VERTEX
  8
MY3DLAYER
10
667.0228142967043
20
48.345859034533134
30
3.327560449406519e-13
 70
     32
  0
VERTEX
  8
MY3DLAYER
10
667.2000000000011
20
47.00000000000005
30
3.327560449406519e-13
 70
     32
  0
VERTEX
  8
MY3DLAYER
10
667.0228142967043
20
45.654140965466965
30
3.327560449406519e-13
 70
     32
  0
VERTEX
  8
MY3DLAYER
10
666.5033320996803
20
44.4000000000001
30
3.327560449406519e-13
 70
     32
  0
VERTEX
  8
MY3DLAYER
10
665.6769552621711
20
43.32304473783008
30
3.327560449406519e-13
 70
     32
  0
VERTEX
  8
MY3DLAYER
10
664.600000000001
20
42.49666790032106
30
3.327560449406519e-13
 70
     32
  0
VERTEX
  8
MY3DLAYER
10
663.3458590345344
20
41.97718570329699
30
3.327560449406519e-13
 70
     32
  0
SEQEND
  0
POLYLINE
 8
outline1
 66
     1
70
    8
 10
0.0
 20
 0.0
 30
0.0
  0
VERTEX
  8
MY3DLAYER
10
604.000000000001
20
94.00000000000013
30
-7.331912854624534e-14
 70
     32
  0
VERTEX
  8
MY3DLAYER
10
720.0000000000014
20
94.00000000000013
30
-7.331912854624534e-14
 70
     32
  0
VERTEX
  8
MY3DLAYER
10
720.0000000000014
20
9.023892744153272e-14
30
6.937117547067828e-13
 70
     32
  0
VERTEX
  8
MY3DLAYER
10
604.000000000001
20
9.023892744153272e-14
30
6.3778523380738e-13
 70
     32
  0
VERTEX
  8
MY3DLAYER
10
604.000000000001
20
94.00000000000013
30
-7.331912854624534e-14
 70
     32
  0
SEQEND
  0
POLYLINE
 8
slot
 66
     1
70
    8
 10
0.0
 20
 0.0
 30
0.0
  0
VERTEX
  8
MY3DLAYER
10
724.0000000000016
20
10.499999999999034
30
5.414335646491963e-13
 70
     32
  0
VERTEX
  8
MY3DLAYER
10
724.0000000000016
20
3.999999999999
30
6.763467332830027e-13
 70
     32
  0
VERTEX
  8
MY3DLAYER
10
600.0000000000009
20
3.999999999999
30
5.414335646491963e-13
 70
     32
  0
VERTEX
  8
MY3DLAYER
10
600.0000000000009
20
10.499999999999034
30
5.414335646491963e-13
 70
     32
  0
VERTEX
  8
MY3DLAYER
10
724.0000000000016
20
10.499999999999034
30
5.414335646491963e-13
 70
     32
  0
SEQEND
 0
ENDSEC
 0
EOF
